<?xml version="1.0" encoding="UTF-8" standalone="no"?>
<svg
   viewBox="-178.3 -167.1 1000 800"
   version="1.1"
   id="svg2"
   xml:space="preserve"
   width="1000"
   height="800"
   xmlns="http://www.w3.org/2000/svg"
   xmlns:svg="http://www.w3.org/2000/svg"><defs
     id="defs2"><rect
       x="803.09998"
       y="673.69684"
       width="44.023754"
       height="68.036713"
       id="rect5" /><rect
       x="194.77176"
       y="572.30878"
       width="375.53598"
       height="186.76744"
       id="rect4" /><rect
       x="247.75449"
       y="286.81488"
       width="244.35565"
       height="154.56171"
       id="rect3" /><rect
       x="570.9425"
       y="284.39401"
       width="163.742"
       height="101.26151"
       id="rect2" /><rect
       x="194.77176"
       y="572.30878"
       width="375.53598"
       height="186.76744"
       id="rect6" /></defs><path
     d="m 79.85,339.73316 c 4,0 7.3,1.4 10.1,4.2 2.8,2.8 4.2,6.2 4.2,10.1 v 49.6 h -50.7 c -4,0 -7.3,-1.4 -10.1,-4.2 -2.8,-2.8 -4.2,-6.2 -4.2,-10.1 v -23.6 h 53.1 v -11.7 c 0,-0.7 -0.2,-1.2 -0.7,-1.7 -0.5,-0.5 -1,-0.7 -1.7,-0.7 h -50.7 v -11.9 z m 2.4,52 v -14.1 h -41.2 v 11.7 c 0,0.7 0.2,1.2 0.7,1.7 0.5,0.5 1,0.7 1.7,0.7 z m 114.7,-52 h 12.7 l -24,63.9 h -9.7 l -21.5,-47.5 -20.3,47.5 -0.2,-0.1 0.1,0.1 h -9.6 l -25.1,-63.9 h 12.6 l 17.3,42.4 18.4,-42.4 h 13.6 l 19.5,42.4 z m 67.2,0 c 4,0 7.3,1.4 10.1,4.2 2.8,2.8 4.2,6.2 4.2,10.1 v 23.6 h -53.1 v 11.7 c 0,0.7 0.2,1.2 0.7,1.7 0.5,0.5 1,0.7 1.7,0.7 h 50.7 v 11.9 h -50.7 c -4,0 -7.3,-1.4 -10.1,-4.2 -2.8,-2.8 -4.2,-6.2 -4.2,-10.1 v -35.3 c 0,-4 1.4,-7.3 4.2,-10.1 2.8,-2.8 6.2,-4.2 10.1,-4.2 z m -38.8,26 h 41.2 v -11.7 c 0,-0.7 -0.2,-1.2 -0.7,-1.7 -0.5,-0.5 -1,-0.7 -1.7,-0.7 h -36.4 c -0.7,0 -1.2,0.2 -1.7,0.7 -0.5,0.5 -0.7,1 -0.7,1.7 z m 129,-11.6 v 2.4 h -11.9 v -2.4 c 0,-0.7 -0.2,-1.2 -0.7,-1.7 -0.5,-0.5 -1,-0.7 -1.7,-0.7 h -36.4 c -0.7,0 -1.2,0.2 -1.7,0.7 -0.5,0.5 -0.7,1 -0.7,1.7 v 9.3 c 0,0.7 0.2,1.2 0.7,1.7 0.5,0.5 1,0.7 1.7,0.7 h 36.4 c 4,0 7.3,1.4 10.1,4.2 2.8,2.8 4.2,6.2 4.2,10.1 v 9.3 c 0,4 -1.4,7.3 -4.2,10.1 -2.8,2.8 -6.2,4.2 -10.1,4.2 h -36.4 c -4,0 -7.3,-1.4 -10.1,-4.2 -2.8,-2.8 -4.2,-6.2 -4.2,-10.1 v -2.4 h 11.9 v 2.4 c 0,0.7 0.2,1.2 0.7,1.7 0.5,0.5 1,0.7 1.7,0.7 h 36.4 c 0.7,0 1.2,-0.2 1.7,-0.7 0.5,-0.5 0.7,-1 0.7,-1.7 v -9.3 c 0,-0.7 -0.2,-1.2 -0.7,-1.7 -0.5,-0.5 -1,-0.7 -1.7,-0.7 h -36.4 c -4,0 -7.3,-1.4 -10.1,-4.2 -2.8,-2.8 -4.2,-6.2 -4.2,-10.1 v -9.3 c 0,-4 1.4,-7.3 4.2,-10.1 2.8,-2.8 6.2,-4.2 10.1,-4.2 h 36.4 c 4,0 7.3,1.4 10.1,4.2 2.8,2.7 4.2,6.1 4.2,10.1 z m 25.2,-14.4 h 36.4 c 4,0 7.3,1.4 10.1,4.2 2.8,2.8 4.2,6.2 4.2,10.1 v 35.3 c 0,4 -1.4,7.3 -4.2,10.1 -2.8,2.8 -6.2,4.2 -10.1,4.2 h -36.4 c -4,0 -7.3,-1.4 -10.1,-4.2 -2.8,-2.8 -4.2,-6.2 -4.2,-10.1 v -35.3 c 0,-4 1.4,-7.3 4.2,-10.1 2.8,-2.8 6.2,-4.2 10.1,-4.2 z m 36.4,11.9 h -36.4 c -0.7,0 -1.2,0.2 -1.7,0.7 -0.5,0.5 -0.7,1 -0.7,1.7 v 35.3 c 0,0.7 0.2,1.2 0.7,1.7 0.5,0.5 1,0.7 1.7,0.7 h 36.4 c 0.7,0 1.2,-0.2 1.7,-0.7 0.5,-0.5 0.7,-1 0.7,-1.7 v -35.3 c 0,-0.7 -0.2,-1.2 -0.7,-1.7 -0.5,-0.4 -1,-0.7 -1.7,-0.7 z m 107.5,-11.9 c 4,0 7.3,1.4 10.1,4.2 2.8,2.8 4.2,6.2 4.2,10.1 v 49.6 h -11.8 v -49.6 c 0,-0.7 -0.2,-1.2 -0.7,-1.7 -0.5,-0.5 -1.1,-0.7 -1.8,-0.7 h -25.2 c -0.7,0 -1.2,0.2 -1.7,0.7 -0.5,0.5 -0.7,1 -0.7,1.7 v 49.6 h -11.9 v -49.6 c 0,-0.7 -0.2,-1.2 -0.7,-1.7 -0.5,-0.5 -1,-0.7 -1.7,-0.7 h -25.3 c -0.7,0 -1.2,0.2 -1.7,0.7 -0.5,0.5 -0.7,1 -0.7,1.7 v 49.6 h -11.9 v -63.9 z m 76.5,0 c 4,0 7.3,1.4 10.1,4.2 2.8,2.8 4.2,6.2 4.2,10.1 v 23.6 h -53.1 v 11.7 c 0,0.7 0.2,1.2 0.7,1.7 0.5,0.5 1,0.7 1.7,0.7 h 50.7 v 11.9 h -50.7 c -4,0 -7.3,-1.4 -10.1,-4.2 -2.8,-2.8 -4.2,-6.2 -4.2,-10.1 v -35.3 c 0,-4 1.4,-7.3 4.2,-10.1 2.8,-2.8 6.2,-4.2 10.1,-4.2 z m -38.8,26 h 41.2 v -11.7 c 0,-0.7 -0.2,-1.2 -0.7,-1.7 -0.5,-0.5 -1,-0.7 -1.7,-0.7 h -36.4 c -0.7,0 -1.2,0.2 -1.7,0.7 -0.5,0.5 -0.7,1 -0.7,1.7 z"
     fill="#494368"
     id="path1"
     style="fill:#263238;fill-opacity:1" /><path
     id="path2"
     style="fill:#7c4dff;fill-opacity:1"
     d="M 179.29961,-42.41738 29.299609,95.281839 H 29.2 v 90.701171 c 0,40.99992 39.500096,74.39844 88,74.39844 h 92.5 c 48.4999,0 88,-33.39852 88,-74.39844 v -59.60156 h 48 v 59.60156 c 0,40.99992 39.5001,74.39844 88,74.39844 h 92.5 c 48.4999,0 88,-33.39852 88,-74.39844 V 95.281839 l -150,-137.59961 -21.09961,23 125,114.599609 H 75.399219 L 200.39922,-19.417379 Z m -64.27539,178.5332 c 2.23999,0 4.30536,0.46458 6.19336,1.39258 1.888,0.896 3.50366,2.17585 4.84765,3.83985 1.344,1.664 2.38315,3.68083 3.11914,6.04882 0.768,2.336 1.15235,4.94423 1.15235,7.82422 0,2.88 -0.38435,5.5031 -1.15235,7.8711 -0.73599,2.33599 -1.77514,4.35282 -3.11914,6.04882 -1.34399,1.664 -2.95965,2.95873 -4.84765,3.88672 -1.888,0.89601 -3.95337,1.34375 -6.19336,1.34375 -2.272,0 -4.35224,-0.44774 -6.24024,-1.34375 -1.85599,-0.92799 -3.47166,-2.22272 -4.84765,-3.88672 -1.344,-1.696 -2.39997,-3.71283 -3.16797,-6.04882 -0.736,-2.368 -1.103516,-4.9911 -1.103516,-7.8711 0,-2.87999 0.367516,-5.48822 1.103516,-7.82422 0.768,-2.36799 1.82397,-4.38482 3.16797,-6.04882 1.37599,-1.664 2.99166,-2.94385 4.84765,-3.83985 1.888,-0.928 3.96824,-1.39258 6.24024,-1.39258 z m 69.91211,0 c 2.23999,0 4.3034,0.46458 6.1914,1.39258 1.888,0.896 3.50562,2.17585 4.84961,3.83985 1.344,1.664 2.38315,3.68083 3.11914,6.04882 0.768,2.336 1.15235,4.94423 1.15235,7.82422 0,2.88 -0.38435,5.5031 -1.15235,7.8711 -0.73599,2.33599 -1.77514,4.35282 -3.11914,6.04882 -1.34399,1.664 -2.96161,2.95873 -4.84961,3.88672 -1.888,0.89601 -3.95141,1.34375 -6.1914,1.34375 -2.272,0 -4.35224,-0.44774 -6.24024,-1.34375 -1.85599,-0.92799 -3.47166,-2.22272 -4.84765,-3.88672 -1.344,-1.696 -2.39997,-3.71283 -3.16797,-6.04882 -0.736,-2.368 -1.10352,-4.9911 -1.10352,-7.8711 0,-2.87999 0.36752,-5.48822 1.10352,-7.82422 0.768,-2.36799 1.82397,-4.38482 3.16797,-6.04882 1.37599,-1.664 2.99166,-2.94385 4.84765,-3.83985 1.888,-0.928 3.96824,-1.39258 6.24024,-1.39258 z m -44.09961,1.05664 h 14.6875 v 36.19141 h -9.4082 v -28.22266 h -5.2793 z m 69.91211,0 h 14.6875 v 36.19141 h -9.40821 v -28.22266 h -5.27929 z m -95.72461,7.29688 c -0.928,0 -1.7601,0.27045 -2.4961,0.81445 -0.736,0.512 -1.37592,1.24899 -1.91992,2.20899 -0.512,0.92799 -0.91122,2.0642 -1.19922,3.4082 -0.288,1.312 -0.43164,2.75232 -0.43164,4.32031 0,1.6 0.14364,3.05519 0.43164,4.36719 0.288,1.31199 0.68722,2.4482 1.19922,3.4082 0.544,0.96 1.18392,1.71186 1.91992,2.25586 0.736,0.512 1.5681,0.76758 2.4961,0.76758 0.896,0 1.71322,-0.25558 2.44922,-0.76758 0.768,-0.544 1.40792,-1.29586 1.91992,-2.25586 0.512,-0.96 0.91122,-2.09621 1.19922,-3.4082 0.288,-1.312 0.43164,-2.76719 0.43164,-4.36719 0,-1.56799 -0.14364,-3.00831 -0.43164,-4.32031 -0.288,-1.344 -0.68722,-2.48021 -1.19922,-3.4082 -0.512,-0.96 -1.15192,-1.69699 -1.91992,-2.20899 -0.736,-0.544 -1.55322,-0.81445 -2.44922,-0.81445 z m 69.91211,0 c -0.928,0 -1.7601,0.27045 -2.4961,0.81445 -0.736,0.512 -1.37592,1.24899 -1.91992,2.20899 -0.512,0.92799 -0.91122,2.0642 -1.19922,3.4082 -0.288,1.312 -0.43164,2.75232 -0.43164,4.32031 0,1.6 0.14364,3.05519 0.43164,4.36719 0.288,1.31199 0.68722,2.4482 1.19922,3.4082 0.544,0.96 1.18392,1.71186 1.91992,2.25586 0.736,0.512 1.5681,0.76758 2.4961,0.76758 0.896,0 1.71126,-0.25558 2.44726,-0.76758 0.768,-0.544 1.40988,-1.29586 1.92188,-2.25586 0.512,-0.96 0.91122,-2.09621 1.19922,-3.4082 0.288,-1.312 0.43164,-2.76719 0.43164,-4.36719 0,-1.56799 -0.14364,-3.00831 -0.43164,-4.32031 -0.288,-1.344 -0.68722,-2.48021 -1.19922,-3.4082 -0.512,-0.96 -1.15388,-1.69699 -1.92188,-2.20899 -0.736,-0.544 -1.55126,-0.81445 -2.44726,-0.81445 z m 263.5625,0.23047 c 7.24264,0 10.75094,3.95753 11.57226,12.99219 l 3.43555,36.81054 c 0.224,1.86666 1.12011,2.76172 2.91211,2.76172 1.86668,0 3.88271,-1.04545 5.52539,-2.91211 l 4.33008,11.27539 c -2.912,1.71734 -4.33059,2.46323 -6.19727,3.06055 -2.3893,0.82134 -5.60045,1.34375 -8.06445,1.34375 -3.136,0 -6.19735,-1.19345 -8.13867,-3.13477 -2.16534,-2.09066 -3.35955,-5.2281 -3.65821,-9.85742 l -1.04492,-13.66406 -8.73633,14.71094 c -2.01598,3.35996 -3.28551,6.04719 -4.85351,10.22851 h -18.36719 c 2.16532,-2.61332 4.40514,-5.74954 6.86914,-9.4082 l 23.07227,-35.24219 -0.44922,-3.73437 c -0.224,-2.16534 -1.11862,-3.20899 -2.83594,-3.20899 -1.64268,0 -4.48131,1.41865 -6.94531,3.58399 l -4.62891,-10.97657 c 6.19734,-3.43464 10.30447,-4.6289 16.20313,-4.6289 z m 44.82031,17.69531 h 16.875 c 1.19466,2.912 1.79138,4.033 3.35938,6.34766 l 3.73242,5.59961 3.66015,-5.59961 c 1.64266,-2.464 2.68694,-4.40634 3.4336,-6.34766 h 16.72461 c -1.49332,1.792 -3.80685,4.85297 -5.07617,6.57031 l -10.60352,14.9336 11.94727,16.875 c 1.4933,2.09066 3.06139,4.10665 5.52539,7.16797 H 525.575 c -0.97068,-2.24 -2.39039,-4.70427 -3.73437,-6.79493 l -4.62891,-7.16796 -4.70313,7.39257 c -1.19466,1.792 -2.46398,4.181 -3.58398,6.57032 h -17.47266 c 1.94132,-2.24 4.10675,-5.00354 5.52539,-7.01954 l 12.09571,-17.02343 -10.67774,-14.9336 c -0.37334,-0.52266 -2.08951,-2.76231 -5.07617,-6.57031 z m -378.29492,20.63281 c 2.23999,0 4.30536,0.46263 6.19336,1.39063 1.888,0.896 3.50366,2.17585 4.84765,3.83984 1.344,1.664 2.38315,3.68084 3.11914,6.04883 0.768,2.336 1.15235,4.94422 1.15235,7.82422 0,2.88 -0.38435,5.5031 -1.15235,7.87109 -0.73599,2.336 -1.77514,4.35283 -3.11914,6.04883 -1.34399,1.664 -2.95965,2.96067 -4.84765,3.88867 -1.888,0.896 -3.95337,1.34375 -6.19336,1.34375 -2.272,0 -4.35224,-0.44775 -6.24024,-1.34375 -1.85599,-0.928 -3.47166,-2.22467 -4.84765,-3.88867 -1.344,-1.696 -2.39997,-3.71283 -3.16797,-6.04883 -0.736,-2.36799 -1.103516,-4.99109 -1.103516,-7.87109 0,-2.88 0.367516,-5.48822 1.103516,-7.82422 0.768,-2.36799 1.82397,-4.38483 3.16797,-6.04883 1.37599,-1.66399 2.99166,-2.94384 4.84765,-3.83984 1.888,-0.928 3.96824,-1.39063 6.24024,-1.39063 z m 37.14062,0 c 2.24,0 4.30342,0.46263 6.19141,1.39063 1.888,0.896 3.50366,2.17585 4.84766,3.83984 1.34399,1.664 2.38509,3.68084 3.12109,6.04883 0.768,2.336 1.15234,4.94422 1.15234,7.82422 0,2.88 -0.38434,5.5031 -1.15234,7.87109 -0.736,2.336 -1.7771,4.35283 -3.12109,6.04883 -1.344,1.664 -2.95966,2.96067 -4.84766,3.88867 -1.88799,0.896 -3.95141,1.34375 -6.19141,1.34375 -2.272,0 -4.35224,-0.44775 -6.24023,-1.34375 -1.856,-0.928 -3.47166,-2.22467 -4.84766,-3.88867 -1.344,-1.696 -2.39997,-3.71283 -3.16797,-6.04883 -0.736,-2.36799 -1.10351,-4.99109 -1.10351,-7.87109 0,-2.88 0.36751,-5.48822 1.10351,-7.82422 0.768,-2.36799 1.82397,-4.38483 3.16797,-6.04883 1.376,-1.66399 2.99166,-2.94384 4.84766,-3.83984 1.88799,-0.928 3.96823,-1.39063 6.24023,-1.39063 z m 25.8125,1.05469 h 14.6875 v 36.19336 h -9.4082 v -28.22461 h -5.2793 z m 31.37891,0 h 14.6875 v 36.19336 h -9.4082 v -28.22461 h -5.2793 z m -94.33203,7.29688 c -0.928,0 -1.7601,0.2724 -2.4961,0.8164 -0.736,0.512 -1.37592,1.24703 -1.91992,2.20703 -0.512,0.928 -0.91122,2.06421 -1.19922,3.40821 -0.288,1.312 -0.43164,2.75231 -0.43164,4.32031 0,1.6 0.14364,3.05519 0.43164,4.36719 0.288,1.312 0.68722,2.4482 1.19922,3.4082 0.544,0.95999 1.18392,1.71186 1.91992,2.25586 0.736,0.512 1.5681,0.76758 2.4961,0.76758 0.896,0 1.71322,-0.25558 2.44922,-0.76758 0.768,-0.544 1.40792,-1.29587 1.91992,-2.25586 0.512,-0.96 0.91122,-2.0962 1.19922,-3.4082 0.288,-1.312 0.43164,-2.76719 0.43164,-4.36719 0,-1.568 -0.14364,-3.00831 -0.43164,-4.32031 -0.288,-1.344 -0.68722,-2.48021 -1.19922,-3.40821 -0.512,-0.96 -1.15192,-1.69503 -1.91992,-2.20703 -0.736,-0.544 -1.55322,-0.8164 -2.44922,-0.8164 z m 37.14062,0 c -0.928,0 -1.76009,0.2724 -2.49609,0.8164 -0.736,0.512 -1.37592,1.24703 -1.91992,2.20703 -0.512,0.928 -0.91122,2.06421 -1.19922,3.40821 -0.288,1.312 -0.43359,2.75231 -0.43359,4.32031 0,1.6 0.14559,3.05519 0.43359,4.36719 0.288,1.312 0.68722,2.4482 1.19922,3.4082 0.544,0.95999 1.18392,1.71186 1.91992,2.25586 0.736,0.512 1.56809,0.76758 2.49609,0.76758 0.896,0 1.71127,-0.25558 2.44727,-0.76758 0.768,-0.544 1.40792,-1.29587 1.91992,-2.25586 0.512,-0.96 0.91317,-2.0962 1.20117,-3.4082 0.288,-1.312 0.43164,-2.76719 0.43164,-4.36719 0,-1.568 -0.14364,-3.00831 -0.43164,-4.32031 -0.288,-1.344 -0.68917,-2.48021 -1.20117,-3.40821 -0.512,-0.96 -1.15192,-1.69503 -1.91992,-2.20703 -0.736,-0.544 -1.55127,-0.8164 -2.44727,-0.8164 z" /><path
     id="text4"
     style="font-weight:bold;font-size:36px;line-height:1.1;font-family:Orbitron;-inkscape-font-specification:'Orbitron Bold';white-space:pre;fill:#263238;stroke-width:3;stroke-linejoin:round"
     d="m 103.07305,436.2877 v 9.5039 h 9.43164 v -9.5039 z m 148.10352,0 v 9.5039 h 9.43164 v -9.5039 z m 25.91992,0 c -1.824,0 -3.48076,0.45714 -4.96876,1.36914 -1.488,0.912 -2.6876,2.11162 -3.5996,3.5996 -0.912,1.488 -1.3672,3.14476 -1.3672,4.96876 v 45.5039 h 9.43164 v -32.32812 h 16.2715 v -9.43164 h -16.2715 v -3.3125 c 0,-0.24 0.0708,-0.43218 0.21486,-0.57618 0.192,-0.192 0.40842,-0.28906 0.64842,-0.28906 h 15.40822 v -9.5039 z m 20.95116,0 v 9.5039 h 9.43164 v -9.5039 z m 185.61524,0 v 9.5039 h 9.4336 v -9.5039 z m 47.95312,0 v 13.68164 h -23.11328 c -1.872,0 -3.55106,0.45518 -5.03906,1.36718 -1.488,0.912 -2.6876,2.11162 -3.5996,3.59962 -0.864,1.488 -1.29688,3.14474 -1.29688,4.96874 v 21.88672 c 0,1.824 0.43288,3.48076 1.29688,4.96876 0.912,1.488 2.1116,2.6876 3.5996,3.5996 1.488,0.912 3.16706,1.36914 5.03906,1.36914 h 32.54492 v -55.4414 z m -312.04686,0.86524 v 44.63866 c 0,1.824 0.45518,3.48076 1.36718,4.96876 0.912,1.488 2.1116,2.6876 3.5996,3.5996 1.488,0.912 3.14476,1.36914 4.96876,1.36914 h 15.76758 v -9.43358 h -15.4082 c -0.24,0 -0.45644,-0.0708 -0.64844,-0.21486 -0.144,-0.192 -0.21484,-0.40844 -0.21484,-0.64844 v -22.03124 h 16.27148 v -9.43164 h -16.27148 v -12.8164 z m -204.83986,12.8164 c -1.824,0 -3.48074,0.45518 -4.96874,1.36718 -1.488,0.912 -2.68762,2.11162 -3.59962,3.59962 -0.912,1.488 -1.36718,3.14474 -1.36718,4.96874 v 5.75978 c 0,1.824 0.45518,3.48074 1.36718,4.96874 0.912,1.488 2.11162,2.68762 3.59962,3.59962 1.488,0.912 3.14474,1.36718 4.96874,1.36718 h 22.17578 c 0.24,0 0.43218,0.097 0.57618,0.28906 0.192,0.144 0.2871,0.33618 0.2871,0.57618 v 4.96678 c 0,0.24 -0.0952,0.45644 -0.2871,0.64844 -0.144,0.144 -0.33618,0.21486 -0.57618,0.21486 h -21.8164 c -0.24,0 -0.45644,-0.0708 -0.64844,-0.21486 -0.144,-0.192 -0.21484,-0.40844 -0.21484,-0.64844 v -1.2246 H 4.79375 v 1.58398 c 0,1.824 0.45518,3.48076 1.36718,4.96876 0.912,1.488 2.11162,2.6876 3.59962,3.5996 1.488,0.912 3.14474,1.36914 4.96874,1.36914 h 22.53516 c 1.872,0 3.55302,-0.45714 5.04102,-1.36914 1.488,-0.912 2.6876,-2.1116 3.5996,-3.5996 0.912,-1.488 1.3672,-3.14476 1.3672,-4.96876 v -5.75976 c 0,-1.824 -0.4552,-3.4788 -1.3672,-4.9668 -0.912,-1.488 -2.1116,-2.6876 -3.5996,-3.5996 -1.488,-0.912 -3.16902,-1.36914 -5.04102,-1.36914 H 15.08867 c -0.24,0 -0.45644,-0.0708 -0.64844,-0.21486 -0.144,-0.192 -0.21484,-0.40842 -0.21484,-0.64842 v -4.96876 c 0,-0.24 0.0708,-0.43218 0.21484,-0.57618 0.192,-0.192 0.40844,-0.2871 0.64844,-0.2871 h 21.8164 c 0.24,0 0.43218,0.0952 0.57618,0.2871 0.192,0.144 0.2871,0.33618 0.2871,0.57618 v 1.22462 h 9.50392 v -1.584 c 0,-1.824 -0.4552,-3.48074 -1.3672,-4.96874 -0.912,-1.488 -2.1116,-2.68762 -3.5996,-3.59962 -1.488,-0.912 -3.16902,-1.36718 -5.04102,-1.36718 z m 48.16798,0 c -1.824,0 -3.48076,0.45518 -4.96876,1.36718 -1.488,0.912 -2.6876,2.11162 -3.5996,3.59962 -0.912,1.488 -1.3672,3.14474 -1.3672,4.96874 v 21.88672 c 0,1.824 0.4552,3.48076 1.3672,4.96876 0.912,1.488 2.1116,2.6876 3.5996,3.5996 1.488,0.912 3.14476,1.36914 4.96876,1.36914 h 32.4707 v -9.43358 H 63.25665 c -0.24,0 -0.45644,-0.0708 -0.64844,-0.21486 -0.144,-0.192 -0.21486,-0.40844 -0.21486,-0.64844 v -21.16796 c 0,-0.24 0.0708,-0.43218 0.21486,-0.57618 0.192,-0.192 0.40844,-0.2871 0.64844,-0.2871 h 32.041 v -9.43164 z m 40.17578,0 v 41.75976 h 9.43164 v -41.75976 z m 26.35156,0 c -1.824,0 -3.48076,0.45518 -4.96876,1.36718 -1.48798,0.912 -2.6876,2.11162 -3.5996,3.59962 -0.912,1.488 -1.36718,3.14474 -1.36718,4.96874 v 21.88672 c 0,1.824 0.45518,3.48076 1.36718,4.96876 0.912,1.488 2.11162,2.6876 3.5996,3.5996 1.488,0.912 3.14476,1.36914 4.96876,1.36914 h 32.47266 v -9.43358 h -32.11328 c -0.24,0 -0.4545,-0.0708 -0.6465,-0.21486 -0.144,-0.192 -0.21678,-0.40844 -0.21678,-0.64844 v -5.83202 h 32.97656 v -15.69532 c 0,-1.824 -0.45714,-3.48074 -1.36914,-4.96874 -0.864,-1.488 -2.06362,-2.68762 -3.59962,-3.59962 -1.488,-0.912 -3.14474,-1.36718 -4.96874,-1.36718 z m 40.10352,0 v 41.75976 h 9.43164 v -31.46484 c 0,-0.24 0.0728,-0.43218 0.2168,-0.57618 0.192,-0.192 0.40844,-0.2871 0.64842,-0.2871 h 21.81642 c 0.24,0 0.43022,0.0952 0.57422,0.2871 0.192,0.144 0.28906,0.33618 0.28906,0.57618 v 31.46484 h 9.43164 v -31.82422 c 0,-1.824 -0.4552,-3.48074 -1.36718,-4.96874 -0.864,-1.488 -2.06558,-2.68762 -3.60158,-3.59962 -1.488,-0.912 -3.1428,-1.36718 -4.96678,-1.36718 z m 81.64844,0 v 41.75976 h 9.43164 v -41.75976 z m 46.87108,0 v 41.75976 h 9.43164 v -41.75976 z m 25.9922,0 c -1.824,0 -3.48076,0.45518 -4.96876,1.36718 -1.488,0.912 -2.6876,2.11162 -3.5996,3.59962 -0.912,1.488 -1.3672,3.14474 -1.3672,4.96874 v 21.88672 c 0,1.824 0.4552,3.48076 1.3672,4.96876 0.912,1.488 2.1116,2.6876 3.5996,3.5996 1.488,0.912 3.14476,1.36914 4.96876,1.36914 h 32.47264 v -9.43358 h -32.11328 c -0.24,0 -0.45448,-0.0708 -0.64648,-0.21486 -0.144,-0.192 -0.2168,-0.40844 -0.2168,-0.64844 v -21.16796 c 0,-0.24 0.0728,-0.43218 0.2168,-0.57618 0.192,-0.192 0.40648,-0.2871 0.64648,-0.2871 h 32.04102 v -9.43164 z m 71.35156,0 c -1.776,0 -3.4308,0.45518 -4.9668,1.36718 -1.488,0.912 -2.68956,2.11162 -3.60156,3.59962 -0.912,1.488 -1.3672,3.14474 -1.3672,4.96874 v 21.88672 c 0,1.824 0.4552,3.48076 1.3672,4.96876 0.912,1.488 2.11356,2.6876 3.60156,3.5996 1.536,0.912 3.1908,1.36914 4.9668,1.36914 h 23.04102 v 6.11914 c 0,0.24 -0.097,0.43218 -0.28908,0.57618 -0.144,0.192 -0.33616,0.2871 -0.57616,0.2871 h -25.12696 v 9.50586 h 25.5586 c 1.824,0 3.48074,-0.45714 4.96874,-1.36914 1.536,-0.864 2.73562,-2.03934 3.59962,-3.52734 0.864,-1.488 1.29688,-3.16902 1.29688,-5.04102 v -38.375 c 0,-1.824 -0.45714,-3.48074 -1.36914,-4.96874 -0.864,-1.488 -2.03936,-2.68762 -3.52736,-3.59962 -1.488,-0.912 -3.14474,-1.36718 -4.96874,-1.36718 z m 38.30468,0 v 31.82226 c 0,1.824 0.43092,3.48076 1.29492,4.96876 0.912,1.488 2.11162,2.6876 3.59962,3.5996 1.536,0.912 3.21702,1.36914 5.04102,1.36914 h 22.53514 c 1.872,0 3.55302,-0.45714 5.04102,-1.36914 1.488,-0.912 2.66334,-2.1116 3.52734,-3.5996 0.912,-1.488 1.36914,-3.14476 1.36914,-4.96876 v -31.82226 h -9.43358 v 31.46288 c 0,0.24 -0.0952,0.45644 -0.28712,0.64844 -0.144,0.144 -0.33616,0.21486 -0.57616,0.21486 h -21.81642 c -0.24,0 -0.45448,-0.0708 -0.64648,-0.21486 -0.144,-0.192 -0.2168,-0.40844 -0.2168,-0.64844 v -31.46288 z m 49.9668,0 v 41.75976 h 9.4336 v -41.75976 z m 73.29688,0 c -1.824,0 -3.48076,0.45518 -4.96876,1.36718 -1.488,0.912 -2.6876,2.11162 -3.5996,3.59962 -0.912,1.488 -1.3672,3.14474 -1.3672,4.96874 v 21.88672 c 0,1.824 0.4552,3.48076 1.3672,4.96876 0.912,1.488 2.1116,2.6876 3.5996,3.5996 1.488,0.912 3.14476,1.36914 4.96876,1.36914 h 32.4707 v -9.43358 h -32.11132 c -0.24,0 -0.45644,-0.0708 -0.64844,-0.21486 -0.144,-0.192 -0.21486,-0.40844 -0.21486,-0.64844 v -5.83202 h 32.97462 v -15.69532 c 0,-1.824 -0.45518,-3.48074 -1.36718,-4.96874 -0.864,-1.488 -2.06362,-2.68762 -3.59962,-3.59962 -1.488,-0.912 -3.14474,-1.36718 -4.96874,-1.36718 z m 49.10352,0 c -1.824,0 -3.48076,0.45518 -4.96876,1.36718 -1.488,0.912 -2.6876,2.11162 -3.5996,3.59962 -0.912,1.488 -1.3672,3.14474 -1.3672,4.96874 v 5.75978 c 0,1.824 0.4552,3.48074 1.3672,4.96874 0.912,1.488 2.1116,2.68762 3.5996,3.59962 1.488,0.912 3.14476,1.36718 4.96876,1.36718 h 22.17578 c 0.24,0 0.43216,0.097 0.57616,0.28906 0.192,0.144 0.28712,0.33618 0.28712,0.57618 v 4.96678 c 0,0.24 -0.0952,0.45644 -0.28712,0.64844 -0.144,0.144 -0.33616,0.21486 -0.57616,0.21486 h -21.81642 c -0.24,0 -0.45644,-0.0708 -0.64844,-0.21486 -0.144,-0.192 -0.21484,-0.40844 -0.21484,-0.64844 v -1.2246 h -9.43164 v 1.58398 c 0,1.824 0.4552,3.48076 1.3672,4.96876 0.912,1.488 2.1116,2.6876 3.5996,3.5996 1.488,0.912 3.14476,1.36914 4.96876,1.36914 h 22.53514 c 1.872,0 3.55302,-0.45714 5.04102,-1.36914 1.488,-0.912 2.68762,-2.1116 3.59962,-3.5996 0.912,-1.488 1.36718,-3.14476 1.36718,-4.96876 v -5.75976 c 0,-1.824 -0.45518,-3.4788 -1.36718,-4.9668 -0.912,-1.488 -2.11162,-2.6876 -3.59962,-3.5996 -1.488,-0.912 -3.16902,-1.36914 -5.04102,-1.36914 h -22.17578 c -0.24,0 -0.45644,-0.0708 -0.64844,-0.21486 -0.144,-0.192 -0.21484,-0.40842 -0.21484,-0.64842 v -4.96876 c 0,-0.24 0.0708,-0.43218 0.21484,-0.57618 0.192,-0.192 0.40844,-0.2871 0.64844,-0.2871 h 21.81642 c 0.24,0 0.43216,0.0952 0.57616,0.2871 0.192,0.144 0.28712,0.33618 0.28712,0.57618 v 1.22462 h 9.5039 v -1.584 c 0,-1.824 -0.45518,-3.48074 -1.36718,-4.96874 -0.912,-1.488 -2.11162,-2.68762 -3.59962,-3.59962 -1.488,-0.912 -3.16902,-1.36718 -5.04102,-1.36718 z m -476.2793,9.43164 h 21.8164 c 0.24,0 0.43218,0.0952 0.57618,0.2871 0.192,0.144 0.2871,0.33618 0.2871,0.57618 v 6.83984 h -23.54296 v -6.83984 c 0,-0.24 0.0728,-0.43218 0.21678,-0.57618 0.192,-0.192 0.4065,-0.2871 0.6465,-0.2871 z m 265.96874,0 h 21.81446 c 0.24,0 0.43216,0.0952 0.57616,0.2871 0.192,0.144 0.28908,0.33618 0.28908,0.57618 v 21.16796 c 0,0.24 -0.097,0.45644 -0.28908,0.64844 -0.144,0.144 -0.33616,0.21486 -0.57616,0.21486 h -21.81446 c -0.24,0 -0.45644,-0.0708 -0.64844,-0.21486 -0.144,-0.192 -0.2168,-0.40844 -0.2168,-0.64844 v -21.16796 c 0,-0.24 0.0728,-0.43218 0.2168,-0.57618 0.192,-0.192 0.40844,-0.2871 0.64844,-0.2871 z m 113.1836,0 h 21.81446 c 0.24,0 0.43216,0.0952 0.57616,0.2871 0.192,0.144 0.28906,0.33618 0.28906,0.57618 v 21.16796 c 0,0.24 -0.097,0.45644 -0.28906,0.64844 -0.144,0.144 -0.33616,0.21486 -0.57616,0.21486 h -21.81446 c -0.24,0 -0.45644,-0.0708 -0.64844,-0.21486 -0.144,-0.192 -0.2168,-0.40844 -0.2168,-0.64844 v -21.16796 c 0,-0.24 0.0728,-0.43218 0.2168,-0.57618 0.192,-0.192 0.40844,-0.2871 0.64844,-0.2871 z m 48.38282,0 h 21.8164 c 0.24,0 0.43216,0.0952 0.57616,0.2871 0.192,0.144 0.28712,0.33618 0.28712,0.57618 v 6.83984 h -23.54298 v -6.83984 c 0,-0.24 0.0708,-0.43218 0.21486,-0.57618 0.192,-0.192 0.40844,-0.2871 0.64844,-0.2871 z" /><text
     xml:space="preserve"
     transform="translate(-178.3,-167.1)"
     id="text5"
     style="font-style:normal;font-variant:normal;font-weight:bold;font-stretch:normal;font-size:48px;line-height:1.1;font-family:Galvji;-inkscape-font-specification:'Galvji Bold';text-align:center;white-space:pre;shape-inside:url(#rect5);display:inline;opacity:0.7;fill:#ff00ff;stroke:#ffffff;stroke-width:1.50047;stroke-linejoin:round;stroke-dasharray:6, 1.5" /></svg>
