<?xml version="1.0" encoding="UTF-8" standalone="no"?>
<svg
   viewBox="-178.3 -167.1 1000 800"
   version="1.1"
   id="svg2"
   xml:space="preserve"
   width="1000"
   height="800"
   xmlns="http://www.w3.org/2000/svg"
   xmlns:svg="http://www.w3.org/2000/svg"><defs
     id="defs2"><rect
       x="803.09998"
       y="673.69684"
       width="44.023754"
       height="68.036713"
       id="rect5" /><rect
       x="194.77176"
       y="572.30878"
       width="375.53598"
       height="186.76744"
       id="rect4" /><rect
       x="247.75449"
       y="286.81488"
       width="244.35565"
       height="154.56171"
       id="rect3" /><rect
       x="570.9425"
       y="284.39401"
       width="163.742"
       height="101.26151"
       id="rect2" /><rect
       x="194.77176"
       y="572.30878"
       width="375.53598"
       height="186.76744"
       id="rect6" /></defs><path
     d="m 79.891335,339.73863 c 3.999316,0 7.298752,1.39976 10.098274,4.19928 2.799521,2.79952 4.199282,6.19894 4.199282,10.09828 v 49.59152 H 43.497556 c -3.999316,0 -7.298752,-1.39976 -10.098274,-4.19928 C 30.599761,396.6289 29.2,393.22949 29.2,389.33015 v -23.59596 h 53.090925 v -11.698 c 0,-0.69989 -0.199966,-1.1998 -0.699881,-1.69971 -0.499914,-0.49992 -0.999829,-0.69988 -1.699709,-0.69988 H 29.2 v -11.89797 z m 2.39959,51.99111 V 377.63215 H 41.097966 v 11.698 c 0,0.69988 0.199966,1.1998 0.699881,1.69971 0.499914,0.49992 0.999829,0.69988 1.699709,0.69988 z M 196.97132,339.73863 h 12.69783 l -23.9959,63.88908 h -9.69834 l -21.49633,-47.49188 -20.29653,47.49188 -0.19996,-0.1 0.1,0.1 h -9.59836 L 99.388002,339.73863 h 12.597848 l 17.29704,42.39275 18.39686,-42.39275 h 13.59767 l 19.49667,42.39275 z m 67.18852,0 c 3.99931,0 7.29875,1.39976 10.09827,4.19928 2.79952,2.79952 4.19928,6.19894 4.19928,10.09828 v 23.59596 h -53.09092 v 11.698 c 0,0.69988 0.19996,1.1998 0.69988,1.69971 0.49991,0.49992 0.99983,0.69988 1.69971,0.69988 h 50.69133 v 11.89797 h -50.69133 c -3.99932,0 -7.29876,-1.39976 -10.09828,-4.19928 -2.79952,-2.79953 -4.19928,-6.19894 -4.19928,-10.09828 v -35.29396 c 0,-3.99932 1.39976,-7.29876 4.19928,-10.09828 2.79952,-2.79952 6.19894,-4.19928 10.09828,-4.19928 z m -38.79337,25.99556 h 41.19296 v -11.698 c 0,-0.69989 -0.19997,-1.1998 -0.69988,-1.69971 -0.49992,-0.49992 -0.99983,-0.69988 -1.69971,-0.69988 h -36.39378 c -0.69988,0 -1.1998,0.19996 -1.69971,0.69988 -0.49992,0.49991 -0.69988,0.99982 -0.69988,1.69971 z m 128.97795,-11.59802 v 2.39959 h -11.89797 v -2.39959 c 0,-0.69988 -0.19996,-1.1998 -0.69988,-1.69971 -0.49991,-0.49992 -0.99983,-0.69988 -1.69971,-0.69988 h -36.39378 c -0.69988,0 -1.19979,0.19996 -1.6997,0.69988 -0.49992,0.49991 -0.69988,0.99983 -0.69988,1.69971 v 9.29841 c 0,0.69988 0.19996,1.19979 0.69988,1.69971 0.49991,0.49991 0.99982,0.69988 1.6997,0.69988 h 36.39378 c 3.99932,0 7.29876,1.39976 10.09828,4.19928 2.79952,2.79952 4.19928,6.19894 4.19928,10.09827 v 9.29841 c 0,3.99932 -1.39976,7.29876 -4.19928,10.09828 -2.79952,2.79952 -6.19894,4.19928 -10.09828,4.19928 h -36.39378 c -3.99931,0 -7.29875,-1.39976 -10.09827,-4.19928 -2.79952,-2.79952 -4.19928,-6.19894 -4.19928,-10.09828 v -2.39958 h 11.89797 v 2.39958 c 0,0.69989 0.19996,1.1998 0.69988,1.69971 0.49991,0.49992 0.99982,0.69988 1.6997,0.69988 h 36.39378 c 0.69988,0 1.1998,-0.19996 1.69971,-0.69988 0.49992,-0.49991 0.69988,-0.99982 0.69988,-1.69971 v -9.29841 c 0,-0.69988 -0.19996,-1.19979 -0.69988,-1.69971 -0.49991,-0.49991 -0.99983,-0.69988 -1.69971,-0.69988 h -36.39378 c -3.99931,0 -7.29875,-1.39976 -10.09827,-4.19928 -2.79952,-2.79952 -4.19928,-6.19894 -4.19928,-10.09827 v -9.29841 c 0,-3.99932 1.39976,-7.29875 4.19928,-10.09828 2.79952,-2.79952 6.19894,-4.19928 10.09827,-4.19928 h 36.39378 c 3.99932,0 7.29876,1.39976 10.09828,4.19928 2.79952,2.69954 4.19928,6.09896 4.19928,10.09828 z m 25.19569,-14.39754 h 36.39378 c 3.99932,0 7.29875,1.39976 10.09828,4.19928 2.79952,2.79952 4.19928,6.19894 4.19928,10.09828 v 35.29396 c 0,3.99932 -1.39976,7.29875 -4.19928,10.09828 -2.79953,2.79952 -6.19894,4.19928 -10.09828,4.19928 h -36.39378 c -3.99931,0 -7.29875,-1.39976 -10.09827,-4.19928 -2.79952,-2.79953 -4.19928,-6.19894 -4.19928,-10.09828 v -35.29396 c 0,-3.99932 1.39976,-7.29876 4.19928,-10.09828 2.79952,-2.79952 6.19894,-4.19928 10.09827,-4.19928 z m 36.39378,11.89797 h -36.39378 c -0.69988,0 -1.19979,0.19996 -1.69971,0.69988 -0.49991,0.49991 -0.69988,0.99982 -0.69988,1.69971 v 35.29396 c 0,0.69988 0.19997,1.1998 0.69988,1.69971 0.49992,0.49992 0.99983,0.69988 1.69971,0.69988 h 36.39378 c 0.69988,0 1.1998,-0.19996 1.69971,-0.69988 0.49992,-0.49991 0.69988,-0.99983 0.69988,-1.69971 v -35.29396 c 0,-0.69989 -0.19996,-1.1998 -0.69988,-1.69971 -0.49991,-0.39994 -0.99983,-0.69988 -1.69971,-0.69988 z m 107.48163,-11.89797 c 3.99932,0 7.29875,1.39976 10.09827,4.19928 2.79952,2.79952 4.19928,6.19894 4.19928,10.09828 v 49.59152 h -11.79798 v -49.59152 c 0,-0.69989 -0.19996,-1.1998 -0.69988,-1.69971 -0.49991,-0.49992 -1.09981,-0.69988 -1.79969,-0.69988 h -25.19569 c -0.69988,0 -1.1998,0.19996 -1.69971,0.69988 -0.49992,0.49991 -0.69988,0.99982 -0.69988,1.69971 v 49.59152 h -11.89797 v -49.59152 c 0,-0.69989 -0.19997,-1.1998 -0.69988,-1.69971 -0.49992,-0.49992 -0.99983,-0.69988 -1.69971,-0.69988 H 456.227 c -0.69988,0 -1.19979,0.19996 -1.69971,0.69988 -0.49991,0.49991 -0.69988,0.99982 -0.69988,1.69971 v 49.59152 h -11.89796 v -63.88908 z m 76.48692,0 c 3.99932,0 7.29876,1.39976 10.09828,4.19928 2.79952,2.79952 4.19928,6.19894 4.19928,10.09828 v 23.59596 h -53.09092 v 11.698 c 0,0.69988 0.19996,1.1998 0.69988,1.69971 0.49991,0.49992 0.99982,0.69988 1.69971,0.69988 H 614.2 v 11.89797 h -50.69133 c -3.99932,0 -7.29876,-1.39976 -10.09828,-4.19928 -2.79952,-2.79953 -4.19928,-6.19894 -4.19928,-10.09828 v -35.29396 c 0,-3.99932 1.39976,-7.29876 4.19928,-10.09828 2.79952,-2.79952 6.19894,-4.19928 10.09828,-4.19928 z m -38.79336,25.99556 h 41.19295 v -11.698 c 0,-0.69989 -0.19996,-1.1998 -0.69988,-1.69971 -0.49991,-0.49992 -0.99983,-0.69988 -1.69971,-0.69988 h -36.39377 c -0.69989,0 -1.1998,0.19996 -1.69971,0.69988 -0.49992,0.49991 -0.69988,0.99982 -0.69988,1.69971 z"
     fill="#494368"
     id="path1"
     style="fill:#263238;fill-opacity:1;stroke-width:0.999829" /><path
     id="path2"
     style="fill:#7c4dff;fill-opacity:1"
     d="M 179.29961,-42.41738 29.299609,95.281839 H 29.2 v 90.701171 c 0,40.99992 39.500096,74.39844 88,74.39844 h 92.5 c 48.4999,0 88,-33.39852 88,-74.39844 v -59.60156 h 48 v 59.60156 c 0,40.99992 39.5001,74.39844 88,74.39844 h 92.5 c 48.4999,0 88,-33.39852 88,-74.39844 V 95.281839 l -150,-137.59961 -21.09961,23 125,114.599609 H 75.399219 L 200.39922,-19.417379 Z m -64.27539,178.5332 c 2.23999,0 4.30536,0.46458 6.19336,1.39258 1.888,0.896 3.50366,2.17585 4.84765,3.83985 1.344,1.664 2.38315,3.68083 3.11914,6.04882 0.768,2.336 1.15235,4.94423 1.15235,7.82422 0,2.88 -0.38435,5.5031 -1.15235,7.8711 -0.73599,2.33599 -1.77514,4.35282 -3.11914,6.04882 -1.34399,1.664 -2.95965,2.95873 -4.84765,3.88672 -1.888,0.89601 -3.95337,1.34375 -6.19336,1.34375 -2.272,0 -4.35224,-0.44774 -6.24024,-1.34375 -1.85599,-0.92799 -3.47166,-2.22272 -4.84765,-3.88672 -1.344,-1.696 -2.39997,-3.71283 -3.16797,-6.04882 -0.736,-2.368 -1.103516,-4.9911 -1.103516,-7.8711 0,-2.87999 0.367516,-5.48822 1.103516,-7.82422 0.768,-2.36799 1.82397,-4.38482 3.16797,-6.04882 1.37599,-1.664 2.99166,-2.94385 4.84765,-3.83985 1.888,-0.928 3.96824,-1.39258 6.24024,-1.39258 z m 69.91211,0 c 2.23999,0 4.3034,0.46458 6.1914,1.39258 1.888,0.896 3.50562,2.17585 4.84961,3.83985 1.344,1.664 2.38315,3.68083 3.11914,6.04882 0.768,2.336 1.15235,4.94423 1.15235,7.82422 0,2.88 -0.38435,5.5031 -1.15235,7.8711 -0.73599,2.33599 -1.77514,4.35282 -3.11914,6.04882 -1.34399,1.664 -2.96161,2.95873 -4.84961,3.88672 -1.888,0.89601 -3.95141,1.34375 -6.1914,1.34375 -2.272,0 -4.35224,-0.44774 -6.24024,-1.34375 -1.85599,-0.92799 -3.47166,-2.22272 -4.84765,-3.88672 -1.344,-1.696 -2.39997,-3.71283 -3.16797,-6.04882 -0.736,-2.368 -1.10352,-4.9911 -1.10352,-7.8711 0,-2.87999 0.36752,-5.48822 1.10352,-7.82422 0.768,-2.36799 1.82397,-4.38482 3.16797,-6.04882 1.37599,-1.664 2.99166,-2.94385 4.84765,-3.83985 1.888,-0.928 3.96824,-1.39258 6.24024,-1.39258 z m -44.09961,1.05664 h 14.6875 v 36.19141 h -9.4082 v -28.22266 h -5.2793 z m 69.91211,0 h 14.6875 v 36.19141 h -9.40821 v -28.22266 h -5.27929 z m -95.72461,7.29688 c -0.928,0 -1.7601,0.27045 -2.4961,0.81445 -0.736,0.512 -1.37592,1.24899 -1.91992,2.20899 -0.512,0.92799 -0.91122,2.0642 -1.19922,3.4082 -0.288,1.312 -0.43164,2.75232 -0.43164,4.32031 0,1.6 0.14364,3.05519 0.43164,4.36719 0.288,1.31199 0.68722,2.4482 1.19922,3.4082 0.544,0.96 1.18392,1.71186 1.91992,2.25586 0.736,0.512 1.5681,0.76758 2.4961,0.76758 0.896,0 1.71322,-0.25558 2.44922,-0.76758 0.768,-0.544 1.40792,-1.29586 1.91992,-2.25586 0.512,-0.96 0.91122,-2.09621 1.19922,-3.4082 0.288,-1.312 0.43164,-2.76719 0.43164,-4.36719 0,-1.56799 -0.14364,-3.00831 -0.43164,-4.32031 -0.288,-1.344 -0.68722,-2.48021 -1.19922,-3.4082 -0.512,-0.96 -1.15192,-1.69699 -1.91992,-2.20899 -0.736,-0.544 -1.55322,-0.81445 -2.44922,-0.81445 z m 69.91211,0 c -0.928,0 -1.7601,0.27045 -2.4961,0.81445 -0.736,0.512 -1.37592,1.24899 -1.91992,2.20899 -0.512,0.92799 -0.91122,2.0642 -1.19922,3.4082 -0.288,1.312 -0.43164,2.75232 -0.43164,4.32031 0,1.6 0.14364,3.05519 0.43164,4.36719 0.288,1.31199 0.68722,2.4482 1.19922,3.4082 0.544,0.96 1.18392,1.71186 1.91992,2.25586 0.736,0.512 1.5681,0.76758 2.4961,0.76758 0.896,0 1.71126,-0.25558 2.44726,-0.76758 0.768,-0.544 1.40988,-1.29586 1.92188,-2.25586 0.512,-0.96 0.91122,-2.09621 1.19922,-3.4082 0.288,-1.312 0.43164,-2.76719 0.43164,-4.36719 0,-1.56799 -0.14364,-3.00831 -0.43164,-4.32031 -0.288,-1.344 -0.68722,-2.48021 -1.19922,-3.4082 -0.512,-0.96 -1.15388,-1.69699 -1.92188,-2.20899 -0.736,-0.544 -1.55126,-0.81445 -2.44726,-0.81445 z m 263.5625,0.23047 c 7.24264,0 10.75094,3.95753 11.57226,12.99219 l 3.43555,36.81054 c 0.224,1.86666 1.12011,2.76172 2.91211,2.76172 1.86668,0 3.88271,-1.04545 5.52539,-2.91211 l 4.33008,11.27539 c -2.912,1.71734 -4.33059,2.46323 -6.19727,3.06055 -2.3893,0.82134 -5.60045,1.34375 -8.06445,1.34375 -3.136,0 -6.19735,-1.19345 -8.13867,-3.13477 -2.16534,-2.09066 -3.35955,-5.2281 -3.65821,-9.85742 l -1.04492,-13.66406 -8.73633,14.71094 c -2.01598,3.35996 -3.28551,6.04719 -4.85351,10.22851 h -18.36719 c 2.16532,-2.61332 4.40514,-5.74954 6.86914,-9.4082 l 23.07227,-35.24219 -0.44922,-3.73437 c -0.224,-2.16534 -1.11862,-3.20899 -2.83594,-3.20899 -1.64268,0 -4.48131,1.41865 -6.94531,3.58399 l -4.62891,-10.97657 c 6.19734,-3.43464 10.30447,-4.6289 16.20313,-4.6289 z m 44.82031,17.69531 h 16.875 c 1.19466,2.912 1.79138,4.033 3.35938,6.34766 l 3.73242,5.59961 3.66015,-5.59961 c 1.64266,-2.464 2.68694,-4.40634 3.4336,-6.34766 h 16.72461 c -1.49332,1.792 -3.80685,4.85297 -5.07617,6.57031 l -10.60352,14.9336 11.94727,16.875 c 1.4933,2.09066 3.06139,4.10665 5.52539,7.16797 H 525.575 c -0.97068,-2.24 -2.39039,-4.70427 -3.73437,-6.79493 l -4.62891,-7.16796 -4.70313,7.39257 c -1.19466,1.792 -2.46398,4.181 -3.58398,6.57032 h -17.47266 c 1.94132,-2.24 4.10675,-5.00354 5.52539,-7.01954 l 12.09571,-17.02343 -10.67774,-14.9336 c -0.37334,-0.52266 -2.08951,-2.76231 -5.07617,-6.57031 z m -378.29492,20.63281 c 2.23999,0 4.30536,0.46263 6.19336,1.39063 1.888,0.896 3.50366,2.17585 4.84765,3.83984 1.344,1.664 2.38315,3.68084 3.11914,6.04883 0.768,2.336 1.15235,4.94422 1.15235,7.82422 0,2.88 -0.38435,5.5031 -1.15235,7.87109 -0.73599,2.336 -1.77514,4.35283 -3.11914,6.04883 -1.34399,1.664 -2.95965,2.96067 -4.84765,3.88867 -1.888,0.896 -3.95337,1.34375 -6.19336,1.34375 -2.272,0 -4.35224,-0.44775 -6.24024,-1.34375 -1.85599,-0.928 -3.47166,-2.22467 -4.84765,-3.88867 -1.344,-1.696 -2.39997,-3.71283 -3.16797,-6.04883 -0.736,-2.36799 -1.103516,-4.99109 -1.103516,-7.87109 0,-2.88 0.367516,-5.48822 1.103516,-7.82422 0.768,-2.36799 1.82397,-4.38483 3.16797,-6.04883 1.37599,-1.66399 2.99166,-2.94384 4.84765,-3.83984 1.888,-0.928 3.96824,-1.39063 6.24024,-1.39063 z m 37.14062,0 c 2.24,0 4.30342,0.46263 6.19141,1.39063 1.888,0.896 3.50366,2.17585 4.84766,3.83984 1.34399,1.664 2.38509,3.68084 3.12109,6.04883 0.768,2.336 1.15234,4.94422 1.15234,7.82422 0,2.88 -0.38434,5.5031 -1.15234,7.87109 -0.736,2.336 -1.7771,4.35283 -3.12109,6.04883 -1.344,1.664 -2.95966,2.96067 -4.84766,3.88867 -1.88799,0.896 -3.95141,1.34375 -6.19141,1.34375 -2.272,0 -4.35224,-0.44775 -6.24023,-1.34375 -1.856,-0.928 -3.47166,-2.22467 -4.84766,-3.88867 -1.344,-1.696 -2.39997,-3.71283 -3.16797,-6.04883 -0.736,-2.36799 -1.10351,-4.99109 -1.10351,-7.87109 0,-2.88 0.36751,-5.48822 1.10351,-7.82422 0.768,-2.36799 1.82397,-4.38483 3.16797,-6.04883 1.376,-1.66399 2.99166,-2.94384 4.84766,-3.83984 1.88799,-0.928 3.96823,-1.39063 6.24023,-1.39063 z m 25.8125,1.05469 h 14.6875 v 36.19336 h -9.4082 v -28.22461 h -5.2793 z m 31.37891,0 h 14.6875 v 36.19336 h -9.4082 v -28.22461 h -5.2793 z m -94.33203,7.29688 c -0.928,0 -1.7601,0.2724 -2.4961,0.8164 -0.736,0.512 -1.37592,1.24703 -1.91992,2.20703 -0.512,0.928 -0.91122,2.06421 -1.19922,3.40821 -0.288,1.312 -0.43164,2.75231 -0.43164,4.32031 0,1.6 0.14364,3.05519 0.43164,4.36719 0.288,1.312 0.68722,2.4482 1.19922,3.4082 0.544,0.95999 1.18392,1.71186 1.91992,2.25586 0.736,0.512 1.5681,0.76758 2.4961,0.76758 0.896,0 1.71322,-0.25558 2.44922,-0.76758 0.768,-0.544 1.40792,-1.29587 1.91992,-2.25586 0.512,-0.96 0.91122,-2.0962 1.19922,-3.4082 0.288,-1.312 0.43164,-2.76719 0.43164,-4.36719 0,-1.568 -0.14364,-3.00831 -0.43164,-4.32031 -0.288,-1.344 -0.68722,-2.48021 -1.19922,-3.40821 -0.512,-0.96 -1.15192,-1.69503 -1.91992,-2.20703 -0.736,-0.544 -1.55322,-0.8164 -2.44922,-0.8164 z m 37.14062,0 c -0.928,0 -1.76009,0.2724 -2.49609,0.8164 -0.736,0.512 -1.37592,1.24703 -1.91992,2.20703 -0.512,0.928 -0.91122,2.06421 -1.19922,3.40821 -0.288,1.312 -0.43359,2.75231 -0.43359,4.32031 0,1.6 0.14559,3.05519 0.43359,4.36719 0.288,1.312 0.68722,2.4482 1.19922,3.4082 0.544,0.95999 1.18392,1.71186 1.91992,2.25586 0.736,0.512 1.56809,0.76758 2.49609,0.76758 0.896,0 1.71127,-0.25558 2.44727,-0.76758 0.768,-0.544 1.40792,-1.29587 1.91992,-2.25586 0.512,-0.96 0.91317,-2.0962 1.20117,-3.4082 0.288,-1.312 0.43164,-2.76719 0.43164,-4.36719 0,-1.568 -0.14364,-3.00831 -0.43164,-4.32031 -0.288,-1.344 -0.68917,-2.48021 -1.20117,-3.40821 -0.512,-0.96 -1.15192,-1.69503 -1.91992,-2.20703 -0.736,-0.544 -1.55127,-0.8164 -2.44727,-0.8164 z" /><path
     id="text4"
     style="font-weight:bold;font-size:36px;line-height:1.1;font-family:Orbitron;-inkscape-font-specification:'Orbitron Bold';white-space:pre;fill:#263238;stroke-width:2.76941;stroke-linejoin:round"
     d="m 119.87722,439.05204 v 8.77341 h 8.7067 v -8.77341 z m 136.71994,0 v 8.77341 h 8.7067 v -8.77341 z m 23.92766,0 c -1.68381,0 -3.21322,0.422 -4.58685,1.2639 -1.37363,0.84191 -2.48103,1.94932 -3.32293,3.32293 -0.8419,1.37363 -1.26211,2.90305 -1.26211,4.58685 v 42.00637 h 8.7067 v -29.84331 h 15.02084 v -8.7067 h -15.02084 v -3.0579 c 0,-0.22155 0.0654,-0.39896 0.19835,-0.53189 0.17724,-0.17724 0.37702,-0.26684 0.59858,-0.26684 h 14.22391 v -8.77341 z m 19.3408,0 v 8.77341 h 8.70671 v -8.77341 z m 171.34843,0 v 8.77341 h 8.70851 v -8.77341 z m 44.26733,0 v 12.63004 h -21.33674 c -1.72811,0 -3.27811,0.42019 -4.65174,1.26209 -1.37363,0.8419 -2.48103,1.94932 -3.32293,3.32295 -0.79759,1.37363 -1.1972,2.90303 -1.1972,4.58683 v 20.20446 c 0,1.6838 0.39961,3.21322 1.1972,4.58685 0.8419,1.37362 1.9493,2.48102 3.32293,3.32292 1.37363,0.8419 2.92363,1.26391 4.65174,1.26391 h 30.04345 v -51.18005 z m -288.06222,0.79874 v 41.20763 c 0,1.6838 0.42019,3.21322 1.2621,4.58685 0.8419,1.37362 1.94929,2.48102 3.32292,3.32292 1.37363,0.8419 2.90305,1.26391 4.58685,1.26391 h 14.55565 v -8.7085 h -14.22389 c -0.22155,0 -0.42136,-0.0654 -0.5986,-0.19834 -0.13293,-0.17724 -0.19833,-0.37705 -0.19833,-0.5986 v -20.33787 h 15.02082 v -8.7067 h -15.02082 v -11.8313 z m -189.095398,11.8313 c -1.683803,0 -3.213202,0.42019 -4.586831,1.26209 -1.373629,0.8419 -2.481044,1.94932 -3.322945,3.32295 -0.841902,1.37363 -1.262096,2.90303 -1.262096,4.58683 v 5.31707 c 0,1.6838 0.420194,3.2132 1.262096,4.58683 0.841901,1.37363 1.949316,2.48104 3.322945,3.32295 1.373629,0.8419 2.903028,1.26209 4.586831,1.26209 h 20.471299 c 0.221553,0 0.398961,0.0895 0.531893,0.26684 0.177243,0.13294 0.265033,0.31034 0.265033,0.5319 v 4.58502 c 0,0.22155 -0.08788,0.42136 -0.265033,0.5986 -0.132932,0.13293 -0.31034,0.19834 -0.531893,0.19834 H 38.655519 c -0.221553,0 -0.421357,-0.0654 -0.598599,-0.19834 -0.132932,-0.17724 -0.198327,-0.37705 -0.198327,-0.5986 v -1.13048 H 29.15189 v 1.46224 c 0,1.6838 0.420194,3.21322 1.262096,4.58685 0.841901,1.37362 1.949316,2.48102 3.322945,3.32292 1.373629,0.8419 2.903028,1.26391 4.586831,1.26391 h 20.803056 c 1.728114,0 3.279927,-0.42201 4.653556,-1.26391 1.373629,-0.8419 2.481025,-1.9493 3.322926,-3.32292 0.841902,-1.37363 1.262114,-2.90305 1.262114,-4.58685 v -5.31706 c 0,-1.6838 -0.420212,-3.21141 -1.262114,-4.58504 -0.841901,-1.37362 -1.949297,-2.48102 -3.322926,-3.32292 -1.373629,-0.8419 -2.925442,-1.26391 -4.653556,-1.26391 H 38.655519 c -0.221553,0 -0.421357,-0.0654 -0.598599,-0.19834 -0.132932,-0.17725 -0.198327,-0.37703 -0.198327,-0.59858 v -4.58685 c 0,-0.22156 0.06536,-0.39896 0.198327,-0.5319 0.177242,-0.17724 0.377046,-0.26503 0.598599,-0.26503 h 20.139542 c 0.221553,0 0.398961,0.0879 0.531893,0.26503 0.177243,0.13294 0.265033,0.31034 0.265033,0.5319 v 1.13049 h 8.773427 v -1.46225 c 0,-1.6838 -0.420212,-3.2132 -1.262114,-4.58683 -0.841901,-1.37363 -1.949297,-2.48105 -3.322926,-3.32295 -1.373629,-0.8419 -2.925442,-1.26209 -4.653556,-1.26209 z m 44.465679,0 c -1.683803,0 -3.213221,0.42019 -4.58685,1.26209 -1.373629,0.8419 -2.481025,1.94932 -3.322926,3.32295 -0.841902,1.37363 -1.262114,2.90303 -1.262114,4.58683 v 20.20446 c 0,1.6838 0.420212,3.21322 1.262114,4.58685 0.841901,1.37362 1.949297,2.48102 3.322926,3.32292 1.373629,0.8419 2.903047,1.26391 4.58685,1.26391 h 29.974929 v -8.7085 H 83.121198 c -0.221553,0 -0.421357,-0.0654 -0.598599,-0.19834 -0.132932,-0.17724 -0.198346,-0.37705 -0.198346,-0.5986 v -19.54094 c 0,-0.22156 0.06536,-0.39896 0.198346,-0.5319 0.177242,-0.17724 0.377046,-0.26503 0.598599,-0.26503 h 29.578252 v -8.7067 z m 37.087779,0 v 38.55001 h 8.7067 v -38.55001 z m 24.32612,0 c -1.68381,0 -3.21322,0.42019 -4.58685,1.26209 -1.37361,0.8419 -2.48103,1.94932 -3.32293,3.32295 -0.8419,1.37363 -1.26209,2.90303 -1.26209,4.58683 v 20.20446 c 0,1.6838 0.42019,3.21322 1.26209,4.58685 0.8419,1.37362 1.94932,2.48102 3.32293,3.32292 1.37363,0.8419 2.90304,1.26391 4.58685,1.26391 h 29.97673 v -8.7085 h -29.64498 c -0.22155,0 -0.41956,-0.0654 -0.5968,-0.19834 -0.13294,-0.17724 -0.20012,-0.37705 -0.20012,-0.5986 v -5.38376 h 30.4419 v -14.48894 c 0,-1.6838 -0.422,-3.2132 -1.2639,-4.58683 -0.79759,-1.37363 -1.90501,-2.48105 -3.32295,-3.32295 -1.37362,-0.8419 -2.90302,-1.26209 -4.58683,-1.26209 z m 37.02107,0 v 38.55001 h 8.7067 v -29.04638 c 0,-0.22156 0.0672,-0.39896 0.20014,-0.5319 0.17724,-0.17724 0.37704,-0.26503 0.59858,-0.26503 h 20.13956 c 0.22155,0 0.39715,0.0879 0.53008,0.26503 0.17724,0.13294 0.26684,0.31034 0.26684,0.5319 v 29.04638 h 8.70671 v -29.37814 c 0,-1.6838 -0.42022,-3.2132 -1.2621,-4.58683 -0.79759,-1.37363 -1.90681,-2.48105 -3.32475,-3.32295 -1.37363,-0.8419 -2.90124,-1.26209 -4.58502,-1.26209 z m 75.37275,0 v 38.55001 h 8.7067 v -38.55001 z m 43.26846,0 v 38.55001 h 8.70671 v -38.55001 z m 23.99438,0 c -1.6838,0 -3.21322,0.42019 -4.58685,1.26209 -1.37362,0.8419 -2.48102,1.94932 -3.32292,3.32295 -0.8419,1.37363 -1.26212,2.90303 -1.26212,4.58683 v 20.20446 c 0,1.6838 0.42022,3.21322 1.26212,4.58685 0.8419,1.37362 1.9493,2.48102 3.32292,3.32292 1.37363,0.8419 2.90305,1.26391 4.58685,1.26391 h 29.97672 v -8.7085 h -29.64498 c -0.22155,0 -0.41955,-0.0654 -0.59679,-0.19834 -0.13293,-0.17724 -0.20013,-0.37705 -0.20013,-0.5986 v -19.54094 c 0,-0.22156 0.0672,-0.39896 0.20013,-0.5319 0.17724,-0.17724 0.37524,-0.26503 0.59679,-0.26503 h 29.57828 v -8.7067 z m 65.86732,0 c -1.63949,0 -3.1671,0.42019 -4.58504,1.26209 -1.37363,0.8419 -2.48284,1.94932 -3.32474,3.32295 -0.8419,1.37363 -1.26211,2.90303 -1.26211,4.58683 v 20.20446 c 0,1.6838 0.42021,3.21322 1.26211,4.58685 0.8419,1.37362 1.95111,2.48102 3.32474,3.32292 1.41794,0.8419 2.94555,1.26391 4.58504,1.26391 h 21.27003 v 5.64881 c 0,0.22155 -0.0895,0.39896 -0.26686,0.53189 -0.13293,0.17724 -0.31032,0.26503 -0.53187,0.26503 h -23.19565 v 8.77522 h 23.59411 c 1.6838,0 3.2132,-0.422 4.58683,-1.2639 1.41794,-0.7976 2.52536,-1.8826 3.32295,-3.25623 0.79759,-1.37362 1.1972,-2.92544 1.1972,-4.65355 v -35.42541 c 0,-1.6838 -0.42201,-3.2132 -1.26391,-4.58683 -0.79759,-1.37363 -1.88261,-2.48105 -3.25624,-3.32295 -1.37363,-0.8419 -2.90303,-1.26209 -4.58683,-1.26209 z m 35.36049,0 v 29.37633 c 0,1.6838 0.3978,3.21322 1.19539,4.58685 0.84191,1.37362 1.94932,2.48102 3.32295,3.32292 1.41794,0.8419 2.96975,1.26391 4.65355,1.26391 h 20.80304 c 1.72812,0 3.27993,-0.42201 4.65356,-1.26391 1.37363,-0.8419 2.45863,-1.9493 3.25622,-3.32292 0.8419,-1.37363 1.2639,-2.90305 1.2639,-4.58685 v -29.37633 h -8.70849 v 29.04457 c 0,0.22155 -0.0879,0.42136 -0.26505,0.5986 -0.13293,0.13293 -0.31032,0.19834 -0.53188,0.19834 h -20.13956 c -0.22155,0 -0.41954,-0.0654 -0.59679,-0.19834 -0.13293,-0.17724 -0.20013,-0.37705 -0.20013,-0.5986 v -29.04457 z m 46.12624,0 v 38.55001 h 8.70851 v -38.55001 z m 67.66312,0 c -1.68381,0 -3.21323,0.42019 -4.58685,1.26209 -1.37363,0.8419 -2.48103,1.94932 -3.32293,3.32295 -0.8419,1.37363 -1.26212,2.90303 -1.26212,4.58683 v 20.20446 c 0,1.6838 0.42022,3.21322 1.26212,4.58685 0.8419,1.37362 1.9493,2.48102 3.32293,3.32292 1.37362,0.8419 2.90304,1.26391 4.58685,1.26391 h 29.97492 v -8.7085 h -29.64317 c -0.22155,0 -0.42135,-0.0654 -0.5986,-0.19834 -0.13293,-0.17724 -0.19834,-0.37705 -0.19834,-0.5986 v -5.38376 h 30.44011 v -14.48894 c 0,-1.6838 -0.42019,-3.2132 -1.26209,-4.58683 -0.79759,-1.37363 -1.90501,-2.48105 -3.32295,-3.32295 -1.37363,-0.8419 -2.90303,-1.26209 -4.58683,-1.26209 z m 45.32931,0 c -1.68381,0 -3.21322,0.42019 -4.58685,1.26209 -1.37363,0.8419 -2.48103,1.94932 -3.32293,3.32295 -0.8419,1.37363 -1.26211,2.90303 -1.26211,4.58683 v 5.31707 c 0,1.6838 0.42021,3.2132 1.26211,4.58683 0.8419,1.37363 1.9493,2.48104 3.32293,3.32295 1.37363,0.8419 2.90304,1.26209 4.58685,1.26209 h 20.47129 c 0.22156,0 0.39895,0.0895 0.53188,0.26684 0.17724,0.13294 0.26505,0.31034 0.26505,0.5319 v 4.58502 c 0,0.22155 -0.0879,0.42136 -0.26505,0.5986 -0.13293,0.13293 -0.31032,0.19834 -0.53188,0.19834 h -20.13956 c -0.22155,0 -0.42135,-0.0654 -0.59859,-0.19834 -0.13294,-0.17724 -0.19833,-0.37705 -0.19833,-0.5986 v -1.13048 h -8.7067 v 1.46224 c 0,1.6838 0.42021,3.21322 1.26211,4.58685 0.8419,1.37362 1.9493,2.48102 3.32293,3.32292 1.37363,0.8419 2.90304,1.26391 4.58685,1.26391 h 20.80303 c 1.72812,0 3.27993,-0.42201 4.65356,-1.26391 1.37363,-0.8419 2.48104,-1.9493 3.32294,-3.32292 0.84191,-1.37363 1.2621,-2.90305 1.2621,-4.58685 v -5.31706 c 0,-1.6838 -0.42019,-3.21141 -1.2621,-4.58504 -0.8419,-1.37362 -1.94931,-2.48102 -3.32294,-3.32292 -1.37363,-0.8419 -2.92544,-1.26391 -4.65356,-1.26391 h -20.4713 c -0.22155,0 -0.42135,-0.0654 -0.59859,-0.19834 -0.13294,-0.17725 -0.19833,-0.37703 -0.19833,-0.59858 v -4.58685 c 0,-0.22156 0.0654,-0.39896 0.19833,-0.5319 0.17724,-0.17724 0.37704,-0.26503 0.59859,-0.26503 h 20.13956 c 0.22156,0 0.39895,0.0879 0.53188,0.26503 0.17724,0.13294 0.26505,0.31034 0.26505,0.5319 v 1.13049 h 8.77341 v -1.46225 c 0,-1.6838 -0.42019,-3.2132 -1.2621,-4.58683 -0.8419,-1.37363 -1.94931,-2.48105 -3.32294,-3.32295 -1.37363,-0.8419 -2.92544,-1.26209 -4.65356,-1.26209 z m -439.67139,8.7067 h 20.13955 c 0.22155,0 0.39896,0.0879 0.53189,0.26503 0.17724,0.13294 0.26503,0.31034 0.26503,0.5319 v 6.31411 h -21.73339 v -6.31411 c 0,-0.22156 0.0672,-0.39896 0.20012,-0.5319 0.17724,-0.17724 0.37525,-0.26503 0.5968,-0.26503 z m 245.52578,0 h 20.13775 c 0.22155,0 0.39894,0.0879 0.53187,0.26503 0.17725,0.13294 0.26686,0.31034 0.26686,0.5319 v 19.54094 c 0,0.22155 -0.0895,0.42136 -0.26686,0.5986 -0.13293,0.13293 -0.31032,0.19834 -0.53187,0.19834 h -20.13775 c -0.22156,0 -0.42136,-0.0654 -0.5986,-0.19834 -0.13293,-0.17724 -0.20014,-0.37705 -0.20014,-0.5986 v -19.54094 c 0,-0.22156 0.0672,-0.39896 0.20014,-0.5319 0.17724,-0.17724 0.37704,-0.26503 0.5986,-0.26503 z m 104.48405,0 h 20.13775 c 0.22155,0 0.39894,0.0879 0.53187,0.26503 0.17724,0.13294 0.26684,0.31034 0.26684,0.5319 v 19.54094 c 0,0.22155 -0.0895,0.42136 -0.26684,0.5986 -0.13293,0.13293 -0.31032,0.19834 -0.53187,0.19834 h -20.13775 c -0.22156,0 -0.42136,-0.0654 -0.5986,-0.19834 -0.13293,-0.17724 -0.20014,-0.37705 -0.20014,-0.5986 v -19.54094 c 0,-0.22156 0.0672,-0.39896 0.20014,-0.5319 0.17724,-0.17724 0.37704,-0.26503 0.5986,-0.26503 z m 44.664,0 h 20.13954 c 0.22156,0 0.39895,0.0879 0.53188,0.26503 0.17724,0.13294 0.26505,0.31034 0.26505,0.5319 v 6.31411 h -21.73341 v -6.31411 c 0,-0.22156 0.0654,-0.39896 0.19834,-0.5319 0.17725,-0.17724 0.37705,-0.26503 0.5986,-0.26503 z" /><text
     xml:space="preserve"
     transform="translate(-178.3,-167.1)"
     id="text5"
     style="font-style:normal;font-variant:normal;font-weight:bold;font-stretch:normal;font-size:48px;line-height:1.1;font-family:Galvji;-inkscape-font-specification:'Galvji Bold';text-align:center;white-space:pre;shape-inside:url(#rect5);display:inline;opacity:0.7;fill:#ff00ff;stroke:#ffffff;stroke-width:1.50047;stroke-linejoin:round;stroke-dasharray:6, 1.5" /></svg>
