<?xml version="1.0" encoding="UTF-8" standalone="no"?>
<svg
   viewBox="-178.3 -167.1 1000 800"
   version="1.1"
   id="svg2"
   xml:space="preserve"
   width="1000"
   height="800"
   sodipodi:docname="logo-dark.svg"
   inkscape:version="1.3 (0e150ed, 2023-07-21)"
   xmlns:inkscape="http://www.inkscape.org/namespaces/inkscape"
   xmlns:sodipodi="http://sodipodi.sourceforge.net/DTD/sodipodi-0.dtd"
   xmlns="http://www.w3.org/2000/svg"
   xmlns:svg="http://www.w3.org/2000/svg"><sodipodi:namedview
     id="namedview1"
     pagecolor="#ffffff"
     bordercolor="#000000"
     borderopacity="0.25"
     inkscape:showpageshadow="2"
     inkscape:pageopacity="0.0"
     inkscape:pagecheckerboard="0"
     inkscape:deskcolor="#d1d1d1"
     inkscape:zoom="0.63234634"
     inkscape:cx="498.93544"
     inkscape:cy="400.0972"
     inkscape:window-width="1528"
     inkscape:window-height="933"
     inkscape:window-x="65"
     inkscape:window-y="38"
     inkscape:window-maximized="0"
     inkscape:current-layer="svg2" /><defs
     id="defs2"><rect
       x="79.070593"
       y="37.953884"
       width="680.0071"
       height="120.1873"
       id="rect1" /><rect
       x="803.09998"
       y="673.69684"
       width="44.023754"
       height="68.036713"
       id="rect5" /><rect
       x="194.77176"
       y="572.30878"
       width="375.53598"
       height="186.76744"
       id="rect4" /><rect
       x="247.75449"
       y="286.81488"
       width="244.35565"
       height="154.56171"
       id="rect3" /><rect
       x="570.9425"
       y="284.39401"
       width="163.742"
       height="101.26151"
       id="rect2" /><rect
       x="194.77176"
       y="572.30878"
       width="375.53598"
       height="186.76744"
       id="rect6" /></defs><path
     d="m 79.891335,339.73863 c 3.999316,0 7.298752,1.39976 10.098274,4.19928 2.799521,2.79952 4.199282,6.19894 4.199282,10.09828 v 49.59152 H 43.497556 c -3.999316,0 -7.298752,-1.39976 -10.098274,-4.19928 C 30.599761,396.6289 29.2,393.22949 29.2,389.33015 v -23.59596 h 53.090925 v -11.698 c 0,-0.69989 -0.199966,-1.1998 -0.699881,-1.69971 -0.499914,-0.49992 -0.999829,-0.69988 -1.699709,-0.69988 H 29.2 v -11.89797 z m 2.39959,51.99111 V 377.63215 H 41.097966 v 11.698 c 0,0.69988 0.199966,1.1998 0.699881,1.69971 0.499914,0.49992 0.999829,0.69988 1.699709,0.69988 z M 196.97132,339.73863 h 12.69783 l -23.9959,63.88908 h -9.69834 l -21.49633,-47.49188 -20.29653,47.49188 -0.19996,-0.1 0.1,0.1 h -9.59836 L 99.388002,339.73863 h 12.597848 l 17.29704,42.39275 18.39686,-42.39275 h 13.59767 l 19.49667,42.39275 z m 67.18852,0 c 3.99931,0 7.29875,1.39976 10.09827,4.19928 2.79952,2.79952 4.19928,6.19894 4.19928,10.09828 v 23.59596 h -53.09092 v 11.698 c 0,0.69988 0.19996,1.1998 0.69988,1.69971 0.49991,0.49992 0.99983,0.69988 1.69971,0.69988 h 50.69133 v 11.89797 h -50.69133 c -3.99932,0 -7.29876,-1.39976 -10.09828,-4.19928 -2.79952,-2.79953 -4.19928,-6.19894 -4.19928,-10.09828 v -35.29396 c 0,-3.99932 1.39976,-7.29876 4.19928,-10.09828 2.79952,-2.79952 6.19894,-4.19928 10.09828,-4.19928 z m -38.79337,25.99556 h 41.19296 v -11.698 c 0,-0.69989 -0.19997,-1.1998 -0.69988,-1.69971 -0.49992,-0.49992 -0.99983,-0.69988 -1.69971,-0.69988 h -36.39378 c -0.69988,0 -1.1998,0.19996 -1.69971,0.69988 -0.49992,0.49991 -0.69988,0.99982 -0.69988,1.69971 z m 128.97795,-11.59802 v 2.39959 h -11.89797 v -2.39959 c 0,-0.69988 -0.19996,-1.1998 -0.69988,-1.69971 -0.49991,-0.49992 -0.99983,-0.69988 -1.69971,-0.69988 h -36.39378 c -0.69988,0 -1.19979,0.19996 -1.6997,0.69988 -0.49992,0.49991 -0.69988,0.99983 -0.69988,1.69971 v 9.29841 c 0,0.69988 0.19996,1.19979 0.69988,1.69971 0.49991,0.49991 0.99982,0.69988 1.6997,0.69988 h 36.39378 c 3.99932,0 7.29876,1.39976 10.09828,4.19928 2.79952,2.79952 4.19928,6.19894 4.19928,10.09827 v 9.29841 c 0,3.99932 -1.39976,7.29876 -4.19928,10.09828 -2.79952,2.79952 -6.19894,4.19928 -10.09828,4.19928 h -36.39378 c -3.99931,0 -7.29875,-1.39976 -10.09827,-4.19928 -2.79952,-2.79952 -4.19928,-6.19894 -4.19928,-10.09828 v -2.39958 h 11.89797 v 2.39958 c 0,0.69989 0.19996,1.1998 0.69988,1.69971 0.49991,0.49992 0.99982,0.69988 1.6997,0.69988 h 36.39378 c 0.69988,0 1.1998,-0.19996 1.69971,-0.69988 0.49992,-0.49991 0.69988,-0.99982 0.69988,-1.69971 v -9.29841 c 0,-0.69988 -0.19996,-1.19979 -0.69988,-1.69971 -0.49991,-0.49991 -0.99983,-0.69988 -1.69971,-0.69988 h -36.39378 c -3.99931,0 -7.29875,-1.39976 -10.09827,-4.19928 -2.79952,-2.79952 -4.19928,-6.19894 -4.19928,-10.09827 v -9.29841 c 0,-3.99932 1.39976,-7.29875 4.19928,-10.09828 2.79952,-2.79952 6.19894,-4.19928 10.09827,-4.19928 h 36.39378 c 3.99932,0 7.29876,1.39976 10.09828,4.19928 2.79952,2.69954 4.19928,6.09896 4.19928,10.09828 z m 25.19569,-14.39754 h 36.39378 c 3.99932,0 7.29875,1.39976 10.09828,4.19928 2.79952,2.79952 4.19928,6.19894 4.19928,10.09828 v 35.29396 c 0,3.99932 -1.39976,7.29875 -4.19928,10.09828 -2.79953,2.79952 -6.19894,4.19928 -10.09828,4.19928 h -36.39378 c -3.99931,0 -7.29875,-1.39976 -10.09827,-4.19928 -2.79952,-2.79953 -4.19928,-6.19894 -4.19928,-10.09828 v -35.29396 c 0,-3.99932 1.39976,-7.29876 4.19928,-10.09828 2.79952,-2.79952 6.19894,-4.19928 10.09827,-4.19928 z m 36.39378,11.89797 h -36.39378 c -0.69988,0 -1.19979,0.19996 -1.69971,0.69988 -0.49991,0.49991 -0.69988,0.99982 -0.69988,1.69971 v 35.29396 c 0,0.69988 0.19997,1.1998 0.69988,1.69971 0.49992,0.49992 0.99983,0.69988 1.69971,0.69988 h 36.39378 c 0.69988,0 1.1998,-0.19996 1.69971,-0.69988 0.49992,-0.49991 0.69988,-0.99983 0.69988,-1.69971 v -35.29396 c 0,-0.69989 -0.19996,-1.1998 -0.69988,-1.69971 -0.49991,-0.39994 -0.99983,-0.69988 -1.69971,-0.69988 z m 107.48163,-11.89797 c 3.99932,0 7.29875,1.39976 10.09827,4.19928 2.79952,2.79952 4.19928,6.19894 4.19928,10.09828 v 49.59152 h -11.79798 v -49.59152 c 0,-0.69989 -0.19996,-1.1998 -0.69988,-1.69971 -0.49991,-0.49992 -1.09981,-0.69988 -1.79969,-0.69988 h -25.19569 c -0.69988,0 -1.1998,0.19996 -1.69971,0.69988 -0.49992,0.49991 -0.69988,0.99982 -0.69988,1.69971 v 49.59152 h -11.89797 v -49.59152 c 0,-0.69989 -0.19997,-1.1998 -0.69988,-1.69971 -0.49992,-0.49992 -0.99983,-0.69988 -1.69971,-0.69988 H 456.227 c -0.69988,0 -1.19979,0.19996 -1.69971,0.69988 -0.49991,0.49991 -0.69988,0.99982 -0.69988,1.69971 v 49.59152 h -11.89796 v -63.88908 z m 76.48692,0 c 3.99932,0 7.29876,1.39976 10.09828,4.19928 2.79952,2.79952 4.19928,6.19894 4.19928,10.09828 v 23.59596 h -53.09092 v 11.698 c 0,0.69988 0.19996,1.1998 0.69988,1.69971 0.49991,0.49992 0.99982,0.69988 1.69971,0.69988 H 614.2 v 11.89797 h -50.69133 c -3.99932,0 -7.29876,-1.39976 -10.09828,-4.19928 -2.79952,-2.79953 -4.19928,-6.19894 -4.19928,-10.09828 v -35.29396 c 0,-3.99932 1.39976,-7.29876 4.19928,-10.09828 2.79952,-2.79952 6.19894,-4.19928 10.09828,-4.19928 z m -38.79336,25.99556 h 41.19295 v -11.698 c 0,-0.69989 -0.19996,-1.1998 -0.69988,-1.69971 -0.49991,-0.49992 -0.99983,-0.69988 -1.69971,-0.69988 h -36.39377 c -0.69989,0 -1.1998,0.19996 -1.69971,0.69988 -0.49992,0.49991 -0.69988,0.99982 -0.69988,1.69971 z"
     fill="#494368"
     id="path1"
     style="fill:#f9f9f9;fill-opacity:1;stroke-width:0.999829" /><path
     id="path2"
     style="fill:#7c4dff;fill-opacity:1"
     d="M 179.29961,-42.41738 29.299609,95.281839 H 29.2 v 90.701171 c 0,40.99992 39.500096,74.39844 88,74.39844 h 92.5 c 48.4999,0 88,-33.39852 88,-74.39844 v -59.60156 h 48 v 59.60156 c 0,40.99992 39.5001,74.39844 88,74.39844 h 92.5 c 48.4999,0 88,-33.39852 88,-74.39844 V 95.281839 l -150,-137.59961 -21.09961,23 125,114.599609 H 75.399219 L 200.39922,-19.417379 Z m -64.27539,178.5332 c 2.23999,0 4.30536,0.46458 6.19336,1.39258 1.888,0.896 3.50366,2.17585 4.84765,3.83985 1.344,1.664 2.38315,3.68083 3.11914,6.04882 0.768,2.336 1.15235,4.94423 1.15235,7.82422 0,2.88 -0.38435,5.5031 -1.15235,7.8711 -0.73599,2.33599 -1.77514,4.35282 -3.11914,6.04882 -1.34399,1.664 -2.95965,2.95873 -4.84765,3.88672 -1.888,0.89601 -3.95337,1.34375 -6.19336,1.34375 -2.272,0 -4.35224,-0.44774 -6.24024,-1.34375 -1.85599,-0.92799 -3.47166,-2.22272 -4.84765,-3.88672 -1.344,-1.696 -2.39997,-3.71283 -3.16797,-6.04882 -0.736,-2.368 -1.103516,-4.9911 -1.103516,-7.8711 0,-2.87999 0.367516,-5.48822 1.103516,-7.82422 0.768,-2.36799 1.82397,-4.38482 3.16797,-6.04882 1.37599,-1.664 2.99166,-2.94385 4.84765,-3.83985 1.888,-0.928 3.96824,-1.39258 6.24024,-1.39258 z m 69.91211,0 c 2.23999,0 4.3034,0.46458 6.1914,1.39258 1.888,0.896 3.50562,2.17585 4.84961,3.83985 1.344,1.664 2.38315,3.68083 3.11914,6.04882 0.768,2.336 1.15235,4.94423 1.15235,7.82422 0,2.88 -0.38435,5.5031 -1.15235,7.8711 -0.73599,2.33599 -1.77514,4.35282 -3.11914,6.04882 -1.34399,1.664 -2.96161,2.95873 -4.84961,3.88672 -1.888,0.89601 -3.95141,1.34375 -6.1914,1.34375 -2.272,0 -4.35224,-0.44774 -6.24024,-1.34375 -1.85599,-0.92799 -3.47166,-2.22272 -4.84765,-3.88672 -1.344,-1.696 -2.39997,-3.71283 -3.16797,-6.04882 -0.736,-2.368 -1.10352,-4.9911 -1.10352,-7.8711 0,-2.87999 0.36752,-5.48822 1.10352,-7.82422 0.768,-2.36799 1.82397,-4.38482 3.16797,-6.04882 1.37599,-1.664 2.99166,-2.94385 4.84765,-3.83985 1.888,-0.928 3.96824,-1.39258 6.24024,-1.39258 z m -44.09961,1.05664 h 14.6875 v 36.19141 h -9.4082 v -28.22266 h -5.2793 z m 69.91211,0 h 14.6875 v 36.19141 h -9.40821 v -28.22266 h -5.27929 z m -95.72461,7.29688 c -0.928,0 -1.7601,0.27045 -2.4961,0.81445 -0.736,0.512 -1.37592,1.24899 -1.91992,2.20899 -0.512,0.92799 -0.91122,2.0642 -1.19922,3.4082 -0.288,1.312 -0.43164,2.75232 -0.43164,4.32031 0,1.6 0.14364,3.05519 0.43164,4.36719 0.288,1.31199 0.68722,2.4482 1.19922,3.4082 0.544,0.96 1.18392,1.71186 1.91992,2.25586 0.736,0.512 1.5681,0.76758 2.4961,0.76758 0.896,0 1.71322,-0.25558 2.44922,-0.76758 0.768,-0.544 1.40792,-1.29586 1.91992,-2.25586 0.512,-0.96 0.91122,-2.09621 1.19922,-3.4082 0.288,-1.312 0.43164,-2.76719 0.43164,-4.36719 0,-1.56799 -0.14364,-3.00831 -0.43164,-4.32031 -0.288,-1.344 -0.68722,-2.48021 -1.19922,-3.4082 -0.512,-0.96 -1.15192,-1.69699 -1.91992,-2.20899 -0.736,-0.544 -1.55322,-0.81445 -2.44922,-0.81445 z m 69.91211,0 c -0.928,0 -1.7601,0.27045 -2.4961,0.81445 -0.736,0.512 -1.37592,1.24899 -1.91992,2.20899 -0.512,0.92799 -0.91122,2.0642 -1.19922,3.4082 -0.288,1.312 -0.43164,2.75232 -0.43164,4.32031 0,1.6 0.14364,3.05519 0.43164,4.36719 0.288,1.31199 0.68722,2.4482 1.19922,3.4082 0.544,0.96 1.18392,1.71186 1.91992,2.25586 0.736,0.512 1.5681,0.76758 2.4961,0.76758 0.896,0 1.71126,-0.25558 2.44726,-0.76758 0.768,-0.544 1.40988,-1.29586 1.92188,-2.25586 0.512,-0.96 0.91122,-2.09621 1.19922,-3.4082 0.288,-1.312 0.43164,-2.76719 0.43164,-4.36719 0,-1.56799 -0.14364,-3.00831 -0.43164,-4.32031 -0.288,-1.344 -0.68722,-2.48021 -1.19922,-3.4082 -0.512,-0.96 -1.15388,-1.69699 -1.92188,-2.20899 -0.736,-0.544 -1.55126,-0.81445 -2.44726,-0.81445 z m 263.5625,0.23047 c 7.24264,0 10.75094,3.95753 11.57226,12.99219 l 3.43555,36.81054 c 0.224,1.86666 1.12011,2.76172 2.91211,2.76172 1.86668,0 3.88271,-1.04545 5.52539,-2.91211 l 4.33008,11.27539 c -2.912,1.71734 -4.33059,2.46323 -6.19727,3.06055 -2.3893,0.82134 -5.60045,1.34375 -8.06445,1.34375 -3.136,0 -6.19735,-1.19345 -8.13867,-3.13477 -2.16534,-2.09066 -3.35955,-5.2281 -3.65821,-9.85742 l -1.04492,-13.66406 -8.73633,14.71094 c -2.01598,3.35996 -3.28551,6.04719 -4.85351,10.22851 h -18.36719 c 2.16532,-2.61332 4.40514,-5.74954 6.86914,-9.4082 l 23.07227,-35.24219 -0.44922,-3.73437 c -0.224,-2.16534 -1.11862,-3.20899 -2.83594,-3.20899 -1.64268,0 -4.48131,1.41865 -6.94531,3.58399 l -4.62891,-10.97657 c 6.19734,-3.43464 10.30447,-4.6289 16.20313,-4.6289 z m 44.82031,17.69531 h 16.875 c 1.19466,2.912 1.79138,4.033 3.35938,6.34766 l 3.73242,5.59961 3.66015,-5.59961 c 1.64266,-2.464 2.68694,-4.40634 3.4336,-6.34766 h 16.72461 c -1.49332,1.792 -3.80685,4.85297 -5.07617,6.57031 l -10.60352,14.9336 11.94727,16.875 c 1.4933,2.09066 3.06139,4.10665 5.52539,7.16797 H 525.575 c -0.97068,-2.24 -2.39039,-4.70427 -3.73437,-6.79493 l -4.62891,-7.16796 -4.70313,7.39257 c -1.19466,1.792 -2.46398,4.181 -3.58398,6.57032 h -17.47266 c 1.94132,-2.24 4.10675,-5.00354 5.52539,-7.01954 l 12.09571,-17.02343 -10.67774,-14.9336 c -0.37334,-0.52266 -2.08951,-2.76231 -5.07617,-6.57031 z m -378.29492,20.63281 c 2.23999,0 4.30536,0.46263 6.19336,1.39063 1.888,0.896 3.50366,2.17585 4.84765,3.83984 1.344,1.664 2.38315,3.68084 3.11914,6.04883 0.768,2.336 1.15235,4.94422 1.15235,7.82422 0,2.88 -0.38435,5.5031 -1.15235,7.87109 -0.73599,2.336 -1.77514,4.35283 -3.11914,6.04883 -1.34399,1.664 -2.95965,2.96067 -4.84765,3.88867 -1.888,0.896 -3.95337,1.34375 -6.19336,1.34375 -2.272,0 -4.35224,-0.44775 -6.24024,-1.34375 -1.85599,-0.928 -3.47166,-2.22467 -4.84765,-3.88867 -1.344,-1.696 -2.39997,-3.71283 -3.16797,-6.04883 -0.736,-2.36799 -1.103516,-4.99109 -1.103516,-7.87109 0,-2.88 0.367516,-5.48822 1.103516,-7.82422 0.768,-2.36799 1.82397,-4.38483 3.16797,-6.04883 1.37599,-1.66399 2.99166,-2.94384 4.84765,-3.83984 1.888,-0.928 3.96824,-1.39063 6.24024,-1.39063 z m 37.14062,0 c 2.24,0 4.30342,0.46263 6.19141,1.39063 1.888,0.896 3.50366,2.17585 4.84766,3.83984 1.34399,1.664 2.38509,3.68084 3.12109,6.04883 0.768,2.336 1.15234,4.94422 1.15234,7.82422 0,2.88 -0.38434,5.5031 -1.15234,7.87109 -0.736,2.336 -1.7771,4.35283 -3.12109,6.04883 -1.344,1.664 -2.95966,2.96067 -4.84766,3.88867 -1.88799,0.896 -3.95141,1.34375 -6.19141,1.34375 -2.272,0 -4.35224,-0.44775 -6.24023,-1.34375 -1.856,-0.928 -3.47166,-2.22467 -4.84766,-3.88867 -1.344,-1.696 -2.39997,-3.71283 -3.16797,-6.04883 -0.736,-2.36799 -1.10351,-4.99109 -1.10351,-7.87109 0,-2.88 0.36751,-5.48822 1.10351,-7.82422 0.768,-2.36799 1.82397,-4.38483 3.16797,-6.04883 1.376,-1.66399 2.99166,-2.94384 4.84766,-3.83984 1.88799,-0.928 3.96823,-1.39063 6.24023,-1.39063 z m 25.8125,1.05469 h 14.6875 v 36.19336 h -9.4082 v -28.22461 h -5.2793 z m 31.37891,0 h 14.6875 v 36.19336 h -9.4082 v -28.22461 h -5.2793 z m -94.33203,7.29688 c -0.928,0 -1.7601,0.2724 -2.4961,0.8164 -0.736,0.512 -1.37592,1.24703 -1.91992,2.20703 -0.512,0.928 -0.91122,2.06421 -1.19922,3.40821 -0.288,1.312 -0.43164,2.75231 -0.43164,4.32031 0,1.6 0.14364,3.05519 0.43164,4.36719 0.288,1.312 0.68722,2.4482 1.19922,3.4082 0.544,0.95999 1.18392,1.71186 1.91992,2.25586 0.736,0.512 1.5681,0.76758 2.4961,0.76758 0.896,0 1.71322,-0.25558 2.44922,-0.76758 0.768,-0.544 1.40792,-1.29587 1.91992,-2.25586 0.512,-0.96 0.91122,-2.0962 1.19922,-3.4082 0.288,-1.312 0.43164,-2.76719 0.43164,-4.36719 0,-1.568 -0.14364,-3.00831 -0.43164,-4.32031 -0.288,-1.344 -0.68722,-2.48021 -1.19922,-3.40821 -0.512,-0.96 -1.15192,-1.69503 -1.91992,-2.20703 -0.736,-0.544 -1.55322,-0.8164 -2.44922,-0.8164 z m 37.14062,0 c -0.928,0 -1.76009,0.2724 -2.49609,0.8164 -0.736,0.512 -1.37592,1.24703 -1.91992,2.20703 -0.512,0.928 -0.91122,2.06421 -1.19922,3.40821 -0.288,1.312 -0.43359,2.75231 -0.43359,4.32031 0,1.6 0.14559,3.05519 0.43359,4.36719 0.288,1.312 0.68722,2.4482 1.19922,3.4082 0.544,0.95999 1.18392,1.71186 1.91992,2.25586 0.736,0.512 1.56809,0.76758 2.49609,0.76758 0.896,0 1.71127,-0.25558 2.44727,-0.76758 0.768,-0.544 1.40792,-1.29587 1.91992,-2.25586 0.512,-0.96 0.91317,-2.0962 1.20117,-3.4082 0.288,-1.312 0.43164,-2.76719 0.43164,-4.36719 0,-1.568 -0.14364,-3.00831 -0.43164,-4.32031 -0.288,-1.344 -0.68917,-2.48021 -1.20117,-3.40821 -0.512,-0.96 -1.15192,-1.69503 -1.91992,-2.20703 -0.736,-0.544 -1.55127,-0.8164 -2.44727,-0.8164 z" /><text
     xml:space="preserve"
     transform="translate(-178.3,-167.1)"
     id="text5"
     style="font-style:normal;font-variant:normal;font-weight:bold;font-stretch:normal;font-size:48px;line-height:1.1;font-family:Galvji;-inkscape-font-specification:'Galvji Bold';text-align:center;white-space:pre;shape-inside:url(#rect5);display:inline;opacity:0.7;fill:#ff00ff;stroke:#ffffff;stroke-width:1.50047;stroke-linejoin:round;stroke-dasharray:6, 1.5" /><path
     d="m 92.894312,105.00097 q -2.736,0 -5.04,-1.368 -2.232,-1.368 -3.6,-3.6 -1.367999,-2.303998 -1.367999,-5.039998 v -3.96 h 9.503999 v 3.528 q 0,0.36 0.216001,0.648 0.287999,0.216 0.647999,0.216 h 31.031998 q 0.36,0 0.576,-0.216 0.288,-0.288 0.288,-0.648 v -9.864 q 0,-0.36 -0.288,-0.576 -0.216,-0.216 -0.576,-0.216 H 92.894312 q -2.736,0 -5.04,-1.368 -2.232,-1.368 -3.6,-3.6 -1.367999,-2.304 -1.367999,-5.112 v -10.656 q 0,-2.736 1.367999,-4.968 1.368,-2.304 3.6,-3.672 2.304,-1.368 5.04,-1.368 h 31.823998 q 2.736,0 4.968,1.368 2.304,1.368 3.672,3.672 1.368,2.232 1.368,4.968 v 3.96 h -9.576 v -3.528 q 0,-0.36 -0.288,-0.576 -0.216,-0.288 -0.576,-0.288 H 93.254312 q -0.36,0 -0.647999,0.288 -0.216001,0.216 -0.216001,0.576 v 9.864 q 0,0.36 0.216001,0.576 0.287999,0.216 0.647999,0.216 h 31.463998 q 2.736,0 4.968,1.368 2.304,1.368 3.672,3.672 1.368,2.232 1.368,5.04 v 10.656 q 0,2.736 -1.368,5.039998 -1.368,2.232 -3.672,3.6 -2.232,1.368 -4.968,1.368 z m 59.255878,0 q -2.736,0 -4.968,-1.368 -2.232,-1.368 -3.6,-3.6 -1.368,-2.231998 -1.368,-4.967998 v -21.888 q 0,-2.736 1.368,-4.968 1.368,-2.232 3.6,-3.6 2.232,-1.368 4.968,-1.368 h 32.4 v 9.432 h -32.04 q -0.36,0 -0.648,0.288 -0.216,0.216 -0.216,0.576 v 21.168 q 0,0.36 0.216,0.648 0.288,0.216 0.648,0.216 h 32.112 v 9.431998 h -32.472 z m 40.17598,0 v 0 -41.759998 h 9.432 v 41.759998 z m 0,-45.935998 v 0 -9.504 h 9.432 v 9.504 z m 26.35187,45.935998 q -2.736,0 -4.968,-1.368 -2.232,-1.368 -3.6,-3.6 -1.368,-2.231998 -1.368,-4.967998 v -21.888 q 0,-2.736 1.368,-4.968 1.368,-2.232 3.6,-3.6 2.232,-1.368 4.968,-1.368 h 22.536 q 2.736,0 4.968,1.368 2.304,1.368 3.6,3.6 1.368,2.232 1.368,4.968 v 15.696 h -32.976 v 5.832 q 0,0.36 0.216,0.648 0.288,0.216 0.648,0.216 h 32.112 v 9.431998 h -32.472 z m -0.504,-24.623998 h 23.544 v -6.84 q 0,-0.36 -0.288,-0.576 -0.216,-0.288 -0.576,-0.288 h -21.816 q -0.36,0 -0.648,0.288 -0.216,0.216 -0.216,0.576 z M 258.782,105.00097 v 0 -41.759998 h 32.472 q 2.736,0 4.968,1.368 2.304,1.368 3.6,3.6 1.368,2.232 1.368,4.968 v 31.823998 h -9.432 V 73.536972 q 0,-0.36 -0.288,-0.576 -0.216,-0.288 -0.576,-0.288 h -21.816 q -0.36,0 -0.648,0.288 -0.216,0.216 -0.216,0.576 v 31.463998 z m 59.97594,0 q -2.736,0 -4.968,-1.368 -2.232,-1.368 -3.6,-3.6 -1.368,-2.231998 -1.368,-4.967998 v -44.64 h 9.432 v 12.816 h 16.272 v 9.432 h -16.272 v 22.032 q 0,0.36 0.216,0.648 0.288,0.216 0.648,0.216 h 15.408 v 9.431998 h -15.768 z m 21.67191,0 v 0 -41.759998 h 9.432 v 41.759998 z m 0,-45.935998 v 0 -9.504 h 9.432 v 9.504 z m 15.98375,45.935998 v 0 -45.503998 q 0,-2.736 1.368,-4.968 1.368,-2.232 3.6,-3.6 2.232,-1.368 4.968,-1.368 h 15.768 v 9.504 h -15.408 q -0.36,0 -0.648,0.288 -0.216,0.216 -0.216,0.576 v 3.312 h 16.272 v 9.432 h -16.272 v 32.327998 z m 30.8879,0 v 0 -41.759998 h 9.432 v 41.759998 z m 0,-45.935998 v 0 -9.504 h 9.432 v 9.504 z m 25.9918,45.935998 q -2.736,0 -4.968,-1.368 -2.232,-1.368 -3.6,-3.6 -1.368,-2.231998 -1.368,-4.967998 v -21.888 q 0,-2.736 1.368,-4.968 1.368,-2.232 3.6,-3.6 2.232,-1.368 4.968,-1.368 h 32.4 v 9.432 h -32.04 q -0.36,0 -0.648,0.288 -0.216,0.216 -0.216,0.576 v 21.168 q 0,0.36 0.216,0.648 0.288,0.216 0.648,0.216 h 32.112 v 9.431998 h -32.472 z m 72.50396,0 q -2.736,0 -5.04,-1.368 -2.232,-1.368 -3.6,-3.6 -1.368,-2.303998 -1.368,-5.039998 v -31.824 q 0,-2.736 1.368,-4.968 1.368,-2.304 3.6,-3.672 2.304,-1.368 5.04,-1.368 h 31.752 q 2.736,0 5.04,1.368 2.304,1.368 3.672,3.672 1.368,2.232 1.368,4.968 v 4.032 h -9.576 v -3.6 q 0,-0.36 -0.288,-0.576 -0.288,-0.288 -0.648,-0.288 h -30.96 q -0.36,0 -0.648,0.288 -0.216,0.216 -0.216,0.576 v 30.96 q 0,0.36 0.216,0.648 0.288,0.216 0.648,0.216 h 30.96 q 0.36,0 0.648,-0.216 0.288,-0.288 0.288,-0.648 v -9.36 h -11.736 v -9.576 h 21.312 v 19.368 q 0,2.736 -1.368,5.039998 -1.368,2.232 -3.672,3.6 -2.304,1.368 -5.04,1.368 z m 59.47198,0 q -2.736,0 -5.04,-1.368 -2.232,-1.368 -3.6,-3.6 -1.296,-2.231998 -1.296,-4.967998 v -31.824 h 9.432 v 31.464 q 0,0.36 0.216,0.648 0.288,0.216 0.648,0.216 h 21.816 q 0.36,0 0.576,-0.216 0.288,-0.288 0.288,-0.648 v -31.464 h 9.432 v 31.824 q 0,2.736 -1.368,4.967998 -1.296,2.232 -3.528,3.6 -2.232,1.368 -5.04,1.368 h -22.536 z m 40.03198,0 v 0 -41.759998 h 9.432 v 41.759998 z m 0,-45.935998 v 0 -9.504 h 9.432 v 9.504 z m 24.83985,45.935998 q -2.808,0 -5.04,-1.368 -2.232,-1.368 -3.6,-3.6 -1.296,-2.231998 -1.296,-4.967998 v -21.888 q 0,-2.736 1.296,-4.968 1.368,-2.232 3.6,-3.6 2.232,-1.368 5.04,-1.368 h 23.112 v -13.68 h 9.432 v 55.439998 h -32.544 z m 0.432,-9.431998 h 21.816 q 0.36,0 0.576,-0.216 0.288,-0.288 0.288,-0.648 v -21.168 q 0,-0.36 -0.288,-0.576 -0.216,-0.288 -0.576,-0.288 h -21.816 q -0.36,0 -0.648,0.288 -0.216,0.216 -0.216,0.576 v 21.168 q 0,0.36 0.216,0.648 0.288,0.216 0.648,0.216 z m 48.02394,9.431998 q -2.736,0 -4.968,-1.368 -2.232,-1.368 -3.6,-3.6 -1.368,-2.231998 -1.368,-4.967998 v -21.888 q 0,-2.736 1.368,-4.968 1.368,-2.232 3.6,-3.6 2.232,-1.368 4.968,-1.368 h 22.536 q 2.736,0 4.968,1.368 2.304,1.368 3.6,3.6 1.368,2.232 1.368,4.968 v 15.696 h -32.976 v 5.832 q 0,0.36 0.216,0.648 0.288,0.216 0.648,0.216 h 32.112 v 9.431998 h -32.472 z m -0.504,-24.623998 h 23.544 v -6.84 q 0,-0.36 -0.288,-0.576 -0.216,-0.288 -0.576,-0.288 h -21.816 q -0.36,0 -0.648,0.288 -0.216,0.216 -0.216,0.576 z m 49.60783,24.623998 q -2.736,0 -4.968,-1.368 -2.232,-1.368 -3.6,-3.6 -1.368,-2.231998 -1.368,-4.967998 v -1.584 h 9.432 v 1.224 q 0,0.36 0.216,0.648 0.288,0.216 0.648,0.216 h 21.816 q 0.36,0 0.576,-0.216 0.288,-0.288 0.288,-0.648 v -4.968 q 0,-0.36 -0.288,-0.576 -0.216,-0.288 -0.576,-0.288 h -22.176 q -2.736,0 -4.968,-1.368 -2.232,-1.368 -3.6,-3.6 -1.368,-2.232 -1.368,-4.968 v -5.76 q 0,-2.736 1.368,-4.968 1.368,-2.232 3.6,-3.6 2.232,-1.368 4.968,-1.368 h 22.536 q 2.808,0 5.04,1.368 2.232,1.368 3.6,3.6 1.368,2.232 1.368,4.968 v 1.584 h -9.504 v -1.224 q 0,-0.36 -0.288,-0.576 -0.216,-0.288 -0.576,-0.288 h -21.816 q -0.36,0 -0.648,0.288 -0.216,0.216 -0.216,0.576 v 4.968 q 0,0.36 0.216,0.648 0.288,0.216 0.648,0.216 h 22.176 q 2.808,0 5.04,1.368 2.232,1.368 3.6,3.6 1.368,2.232 1.368,4.968 v 5.76 q 0,2.736 -1.368,4.967998 -1.368,2.232 -3.6,3.6 -2.232,1.368 -5.04,1.368 h -22.536 z"
     id="text1"
     style="-inkscape-font-specification:'Orbitron Bold';fill:#f9f9f9;stroke-width:1.50047;stroke-linejoin:round"
     transform="matrix(0.88991703,0,0,0.88991703,-44.559214,406.20406)"
     aria-label="Scientific Guides" /></svg>
