<?xml version="1.0" encoding="UTF-8" standalone="no"?>
<svg
   width="24"
   height="24"
   viewBox="0 0 24 24"
   fill="none"
   stroke="currentColor"
   stroke-width="2"
   stroke-linecap="round"
   stroke-linejoin="round"
   class="lucide lucide-waypoints-icon lucide-waypoints"
   version="1.1"
   id="svg6"
   xmlns:xlink="http://www.w3.org/1999/xlink"
   xmlns="http://www.w3.org/2000/svg"
   xmlns:svg="http://www.w3.org/2000/svg">
  <defs
     id="defs6">
    <linearGradient
       id="linearGradient12">
      <stop
         style="stop-color:#7c4dff;stop-opacity:1;"
         offset="0"
         id="stop12" />
      <stop
         style="stop-color:#e040fb;stop-opacity:1;"
         offset="1"
         id="stop13" />
    </linearGradient>
    <linearGradient
       xlink:href="#linearGradient12"
       id="linearGradient13"
       x1="0.84461784"
       y1="22.954443"
       x2="21.756943"
       y2="2.5993791"
       gradientUnits="userSpaceOnUse" />
  </defs>
  <path
     id="path1"
     style="color:#000000;fill:url(#linearGradient13);-inkscape-stroke:none;stroke:none"
     d="M 12 1 C 10.354994 1 9 2.3549936 9 4 C 9 4.460495 9.107873 4.897383 9.296875 5.2890625 L 5.2890625 9.296875 C 4.897383 9.107873 4.460495 9 4 9 C 2.3549936 9 1 10.354994 1 12 C 1 13.645006 2.3549936 15 4 15 C 5.2953565 15 6.4104792 14.160387 6.8261719 13 L 17.173828 13 C 17.209399 13.099296 17.251381 13.194782 17.296875 13.289062 L 13.289062 17.296875 C 12.897383 17.107873 12.460495 17 12 17 C 10.354994 17 9 18.354994 9 20 C 9 21.645006 10.354994 23 12 23 C 13.645006 23 15 21.645006 15 20 C 15 19.539505 14.892127 19.102617 14.703125 18.710938 L 18.710938 14.703125 C 19.102617 14.892127 19.539505 15 20 15 C 21.645006 15 23 13.645006 23 12 C 23 10.354994 21.645006 9 20 9 C 18.704644 9 17.589521 9.8396128 17.173828 11 L 6.8261719 11 C 6.7906006 10.900704 6.7486194 10.805218 6.703125 10.710938 L 10.710938 6.703125 C 11.102617 6.892127 11.539505 7 12 7 C 13.645006 7 15 5.6450064 15 4 C 15 2.3549936 13.645006 1 12 1 z M 12 3 C 12.564128 3 13 3.4358718 13 4 C 13 4.5641282 12.564128 5 12 5 C 11.741441 5 11.510993 4.9074149 11.335938 4.7539062 A 1 1 0 0 0 11.292969 4.7070312 A 1 1 0 0 0 11.267578 4.6875 C 11.101268 4.5099273 11 4.2703114 11 4 C 11 3.4358718 11.435872 3 12 3 z M 4 11 C 4.2703114 11 4.5099273 11.101268 4.6875 11.267578 A 1 1 0 0 0 4.7070312 11.292969 A 1 1 0 0 0 4.7324219 11.3125 C 4.8987316 11.490073 5 11.729688 5 12 C 5 12.564128 4.5641282 13 4 13 C 3.4358718 13 3 12.564128 3 12 C 3 11.435872 3.4358718 11 4 11 z M 20 11 C 20.564128 11 21 11.435872 21 12 C 21 12.564128 20.564128 13 20 13 C 19.741441 13 19.510993 12.907415 19.335938 12.753906 A 1 1 0 0 0 19.292969 12.707031 A 1 1 0 0 0 19.267578 12.6875 C 19.101268 12.509927 19 12.270312 19 12 C 19 11.435872 19.435872 11 20 11 z M 12 19 C 12.270312 19 12.509927 19.101268 12.6875 19.267578 A 1 1 0 0 0 12.707031 19.292969 A 1 1 0 0 0 12.732422 19.3125 C 12.898732 19.490073 13 19.729688 13 20 C 13 20.564128 12.564128 21 12 21 C 11.435872 21 11 20.564128 11 20 C 11 19.435872 11.435872 19 12 19 z " />
</svg>
